0
SECTION
2
HEADER
9
$ACADVER
1
AC1006
9
$INSUNITS
70
6
0
ENDSEC
0
SECTION
2
ENTITIES
0
POLYLINE
8
0
62
255
66
1
10
0
20
0
30
0
70
8
0
VERTEX
8
0
62
255
10
164.28237
20
611.23491
30
0
70
32
0
VERTEX
8
0
62
255
10
166.42131
20
606.61167
30
0
70
32
0
VERTEX
8
0
62
255
10
168.04785
20
601.78427
30
0
70
32
0
VERTEX
8
0
62
255
10
169.14292
20
596.80931
30
0
70
32
0
VERTEX
8
0
62
255
10
169.69369
20
591.74511
30
0
70
32
0
VERTEX
8
0
62
255
10
169.69369
20
586.65106
30
0
70
32
0
VERTEX
8
0
62
255
10
169.14292
20
581.58686
30
0
70
32
0
VERTEX
8
0
62
255
10
168.04785
20
576.6119
30
0
70
32
0
VERTEX
8
0
62
255
10
166.42131
20
571.7845
30
0
70
32
0
VERTEX
8
0
62
255
10
164.28237
20
567.16126
30
0
70
32
0
VERTEX
8
0
62
255
10
161.65611
20
562.79639
30
0
70
32
0
VERTEX
8
0
62
255
10
159.26873
20
559.65583
30
0
70
32
0
VERTEX
8
0
62
255
10
179.9812
20
538.94602
30
0
70
32
0
VERTEX
8
0
62
255
10
183.125
20
541.3795
30
0
70
32
0
VERTEX
8
0
62
255
10
187.45903
20
544.08092
30
0
70
32
0
VERTEX
8
0
62
255
10
192.04412
20
546.33001
30
0
70
32
0
VERTEX
8
0
62
255
10
196.83322
20
548.1037
30
0
70
32
0
VERTEX
8
0
62
255
10
201.77719
20
549.38379
30
0
70
32
0
VERTEX
8
0
62
255
10
203.56453
20
549.6576
30
0
70
32
0
VERTEX
8
0
62
255
10
200.09128
20
600.78445
30
0
70
32
0
VERTEX
8
0
62
255
10
196.69212
20
600.9626
30
0
70
32
0
VERTEX
8
0
62
255
10
191.66091
20
601.75946
30
0
70
32
0
VERTEX
8
0
62
255
10
186.74057
20
603.07786
30
0
70
32
0
VERTEX
8
0
62
255
10
181.98499
20
604.90336
30
0
70
32
0
VERTEX
8
0
62
255
10
177.44628
20
607.21595
30
0
70
32
0
VERTEX
8
0
62
255
10
173.17416
20
609.99029
30
0
70
32
0
VERTEX
8
0
62
255
10
169.21545
20
613.196
30
0
70
32
0
VERTEX
8
0
62
255
10
165.76611
20
616.64534
30
0
70
32
0
VERTEX
8
0
62
255
10
162.51539
20
614.17167
30
0
70
32
0
VERTEX
8
0
62
255
10
164.28237
20
611.23491
30
0
70
32
0
SEQEND
8
0
0
POLYLINE
8
0
62
255
66
1
10
0
20
0
30
0
70
8
0
VERTEX
8
0
62
255
10
332.69715
20
801.18987
30
0
70
32
0
VERTEX
8
0
62
255
10
333.61015
20
797.54498
30
0
70
32
0
VERTEX
8
0
62
255
10
334.35525
20
792.52189
30
0
70
32
0
VERTEX
8
0
62
255
10
334.60442
20
787.44996
30
0
70
32
0
VERTEX
8
0
62
255
10
334.35525
20
782.37803
30
0
70
32
0
VERTEX
8
0
62
255
10
333.61015
20
777.35494
30
0
70
32
0
VERTEX
8
0
62
255
10
332.37628
20
772.42907
30
0
70
32
0
VERTEX
8
0
62
255
10
330.66554
20
767.64787
30
0
70
32
0
VERTEX
8
0
62
255
10
328.49439
20
763.05736
30
0
70
32
0
VERTEX
8
0
62
255
10
325.88375
20
758.70178
30
0
70
32
0
VERTEX
8
0
62
255
10
323.05122
20
754.88255
30
0
70
32
0
VERTEX
8
0
62
255
10
413.68365
20
665.87848
30
0
70
32
0
VERTEX
8
0
62
255
10
416.6548
20
668.29569
30
0
70
32
0
VERTEX
8
0
62
255
10
420.87238
20
671.13118
30
0
70
32
0
VERTEX
8
0
62
255
10
425.33033
20
673.57139
30
0
70
32
0
VERTEX
8
0
62
255
10
429.99171
20
675.59612
30
0
70
32
0
VERTEX
8
0
62
255
10
434.37309
20
677.0418
30
0
70
32
0
VERTEX
8
0
62
255
10
413.86211
20
783.76921
30
0
70
32
0
VERTEX
8
0
62
255
10
409.09844
20
783.53518
30
0
70
32
0
VERTEX
8
0
62
255
10
403.99166
20
783.78606
30
0
70
32
0
VERTEX
8
0
62
255
10
398.93407
20
784.53629
30
0
70
32
0
VERTEX
8
0
62
255
10
393.97436
20
785.77863
30
0
70
32
0
VERTEX
8
0
62
255
10
389.16031
20
787.50112
30
0
70
32
0
VERTEX
8
0
62
255
10
384.53827
20
789.68718
30
0
70
32
0
VERTEX
8
0
62
255
10
380.15277
20
792.31576
30
0
70
32
0
VERTEX
8
0
62
255
10
376.04602
20
795.36153
30
0
70
32
0
VERTEX
8
0
62
255
10
372.25758
20
798.79516
30
0
70
32
0
VERTEX
8
0
62
255
10
368.82395
20
802.5836
30
0
70
32
0
VERTEX
8
0
62
255
10
365.77818
20
806.69034
30
0
70
32
0
VERTEX
8
0
62
255
10
363.1496
20
811.07585
30
0
70
32
0
VERTEX
8
0
62
255
10
362.45337
20
812.54793
30
0
70
32
0
VERTEX
8
0
62
255
10
332.69715
20
801.18987
30
0
70
32
0
SEQEND
8
0
0
POLYLINE
8
0
62
255
66
1
10
0
20
0
30
0
70
8
0
VERTEX
8
0
62
255
10
389.35657
20
528.00877
30
0
70
32
0
VERTEX
8
0
62
255
10
392.75499
20
524.25919
30
0
70
32
0
VERTEX
8
0
62
255
10
395.76952
20
520.19456
30
0
70
32
0
VERTEX
8
0
62
255
10
398.37114
20
515.85403
30
0
70
32
0
VERTEX
8
0
62
255
10
400.53478
20
511.27939
30
0
70
32
0
VERTEX
8
0
62
255
10
402.23961
20
506.51471
30
0
70
32
0
VERTEX
8
0
62
255
10
403.46921
20
501.60587
30
0
70
32
0
VERTEX
8
0
62
255
10
404.21174
20
496.60015
30
0
70
32
0
VERTEX
8
0
62
255
10
404.36789
20
493.42159
30
0
70
32
0
VERTEX
8
0
62
255
10
447.77069
20
490.59508
30
0
70
32
0
VERTEX
8
0
62
255
10
448.52448
20
494.50608
30
0
70
32
0
VERTEX
8
0
62
255
10
449.95276
20
499.37038
30
0
70
32
0
VERTEX
8
0
62
255
10
451.83697
20
504.07689
30
0
70
32
0
VERTEX
8
0
62
255
10
454.16002
20
508.58298
30
0
70
32
0
VERTEX
8
0
62
255
10
456.90088
20
512.84785
30
0
70
32
0
VERTEX
8
0
62
255
10
460.03474
20
516.83287
30
0
70
32
0
VERTEX
8
0
62
255
10
463.5332
20
520.50195
30
0
70
32
0
VERTEX
8
0
62
255
10
467.36459
20
523.82187
30
0
70
32
0
VERTEX
8
0
62
255
10
471.49421
20
526.76256
30
0
70
32
0
VERTEX
8
0
62
255
10
475.88467
20
529.29739
30
0
70
32
0
VERTEX
8
0
62
255
10
478.01706
20
530.27122
30
0
70
32
0
VERTEX
8
0
62
255
10
464.04607
20
569.47871
30
0
70
32
0
VERTEX
8
0
62
255
10
462.48075
20
569.04013
30
0
70
32
0
VERTEX
8
0
62
255
10
457.48267
20
568.11967
30
0
70
32
0
VERTEX
8
0
62
255
10
452.42161
20
567.65753
30
0
70
32
0
VERTEX
8
0
62
255
10
447.33948
20
567.65753
30
0
70
32
0
VERTEX
8
0
62
255
10
442.27841
20
568.11967
30
0
70
32
0
VERTEX
8
0
62
255
10
437.28034
20
569.04013
30
0
70
32
0
VERTEX
8
0
62
255
10
432.38668
20
570.41127
30
0
70
32
0
VERTEX
8
0
62
255
10
427.63797
20
572.22174
30
0
70
32
0
VERTEX
8
0
62
255
10
423.07357
20
574.45652
30
0
70
32
0
VERTEX
8
0
62
255
10
421.35844
20
575.49952
30
0
70
32
0
VERTEX
8
0
62
255
10
387.60276
20
529.59833
30
0
70
32
0
VERTEX
8
0
62
255
10
389.35657
20
528.00877
30
0
70
32
0
SEQEND
8
0
0
POLYLINE
8
0
62
255
66
1
10
0
20
0
30
0
70
8
0
VERTEX
8
0
62
255
10
403.46921
20
481.48562
30
0
70
32
0
VERTEX
8
0
62
255
10
402.23961
20
476.57678
30
0
70
32
0
VERTEX
8
0
62
255
10
400.53478
20
471.8121
30
0
70
32
0
VERTEX
8
0
62
255
10
398.37114
20
467.23747
30
0
70
32
0
VERTEX
8
0
62
255
10
395.76952
20
462.89693
30
0
70
32
0
VERTEX
8
0
62
255
10
392.75499
20
458.8323
30
0
70
32
0
VERTEX
8
0
62
255
10
389.35657
20
455.08272
30
0
70
32
0
VERTEX
8
0
62
255
10
385.60699
20
451.6843
30
0
70
32
0
VERTEX
8
0
62
255
10
381.54236
20
448.66977
30
0
70
32
0
VERTEX
8
0
62
255
10
380.75102
20
448.19546
30
0
70
32
0
VERTEX
8
0
62
255
10
423.02869
20
364.60646
30
0
70
32
0
VERTEX
8
0
62
255
10
424.30046
20
365.11318
30
0
70
32
0
VERTEX
8
0
62
255
10
429.1647
20
366.46373
30
0
70
32
0
VERTEX
8
0
62
255
10
434.14644
20
367.28045
30
0
70
32
0
VERTEX
8
0
62
255
10
439.18728
20
367.55375
30
0
70
32
0
VERTEX
8
0
62
255
10
444.22812
20
367.28045
30
0
70
32
0
VERTEX
8
0
62
255
10
449.20986
20
366.46373
30
0
70
32
0
VERTEX
8
0
62
255
10
451.39183
20
365.85791
30
0
70
32
0
VERTEX
8
0
62
255
10
477.24353
20
433.97504
30
0
70
32
0
VERTEX
8
0
62
255
10
475.88467
20
434.59562
30
0
70
32
0
VERTEX
8
0
62
255
10
471.49421
20
437.13045
30
0
70
32
0
VERTEX
8
0
62
255
10
467.36459
20
440.07114
30
0
70
32
0
VERTEX
8
0
62
255
10
463.5332
20
443.39106
30
0
70
32
0
VERTEX
8
0
62
255
10
460.03474
20
447.06014
30
0
70
32
0
VERTEX
8
0
62
255
10
456.90088
20
451.04516
30
0
70
32
0
VERTEX
8
0
62
255
10
454.16002
20
455.31003
30
0
70
32
0
VERTEX
8
0
62
255
10
451.83697
20
459.81612
30
0
70
32
0
VERTEX
8
0
62
255
10
449.95276
20
464.52263
30
0
70
32
0
VERTEX
8
0
62
255
10
448.52448
20
469.38693
30
0
70
32
0
VERTEX
8
0
62
255
10
447.56504
20
474.36497
30
0
70
32
0
VERTEX
8
0
62
255
10
447.08314
20
479.41167
30
0
70
32
0
VERTEX
8
0
62
255
10
447.08314
20
480.18386
30
0
70
32
0
VERTEX
8
0
62
255
10
403.69524
20
483.0094
30
0
70
32
0
VERTEX
8
0
62
255
10
403.46921
20
481.48562
30
0
70
32
0
SEQEND
8
0
0
POLYLINE
8
0
62
255
66
1
10
0
20
0
30
0
70
8
0
VERTEX
8
0
62
255
10
367.86251
20
442.19968
30
0
70
32
0
VERTEX
8
0
62
255
10
362.95367
20
440.97008
30
0
70
32
0
VERTEX
8
0
62
255
10
357.94794
20
440.22755
30
0
70
32
0
VERTEX
8
0
62
255
10
352.89354
20
439.97924
30
0
70
32
0
VERTEX
8
0
62
255
10
347.83914
20
440.22755
30
0
70
32
0
VERTEX
8
0
62
255
10
342.83342
20
440.97008
30
0
70
32
0
VERTEX
8
0
62
255
10
337.92458
20
442.19968
30
0
70
32
0
VERTEX
8
0
62
255
10
333.1599
20
443.90451
30
0
70
32
0
VERTEX
8
0
62
255
10
328.58526
20
446.06815
30
0
70
32
0
VERTEX
8
0
62
255
10
327.17585
20
446.91292
30
0
70
32
0
VERTEX
8
0
62
255
10
296.50891
20
404.04421
30
0
70
32
0
VERTEX
8
0
62
255
10
298.64868
20
402.08035
30
0
70
32
0
VERTEX
8
0
62
255
10
301.98614
20
398.22871
30
0
70
32
0
VERTEX
8
0
62
255
10
304.8628
20
394.02173
30
0
70
32
0
VERTEX
8
0
62
255
10
307.24115
20
389.51426
30
0
70
32
0
VERTEX
8
0
62
255
10
309.09018
20
384.76507
30
0
70
32
0
VERTEX
8
0
62
255
10
310.38579
20
379.83605
30
0
70
32
0
VERTEX
8
0
62
255
10
311.11109
20
374.79147
30
0
70
32
0
VERTEX
8
0
62
255
10
311.25663
20
369.6971
30
0
70
32
0
VERTEX
8
0
62
255
10
310.8205
20
364.61934
30
0
70
32
0
VERTEX
8
0
62
255
10
310.56165
20
363.34188
30
0
70
32
0
VERTEX
8
0
62
255
10
396.04369
20
338.55112
30
0
70
32
0
VERTEX
8
0
62
255
10
397.99524
20
342.76932
30
0
70
32
0
VERTEX
8
0
62
255
10
400.59788
20
347.09495
30
0
70
32
0
VERTEX
8
0
62
255
10
403.65295
20
351.11382
30
0
70
32
0
VERTEX
8
0
62
255
10
407.12462
20
354.77882
30
0
70
32
0
VERTEX
8
0
62
255
10
410.9722
20
358.04699
30
0
70
32
0
VERTEX
8
0
62
255
10
413.58636
20
359.81943
30
0
70
32
0
VERTEX
8
0
62
255
10
371.29828
20
443.42902
30
0
70
32
0
VERTEX
8
0
62
255
10
367.86251
20
442.19968
30
0
70
32
0
SEQEND
8
0
0
POLYLINE
8
0
62
255
66
1
10
0
20
0
30
0
70
8
0
VERTEX
8
0
62
255
10
164.02542
20
183.99514
30
0
70
32
0
VERTEX
8
0
62
255
10
168.61001
20
181.82679
30
0
70
32
0
VERTEX
8
0
62
255
10
172.96
20
179.21951
30
0
70
32
0
VERTEX
8
0
62
255
10
177.03347
20
176.19841
30
0
70
32
0
VERTEX
8
0
62
255
10
180.79122
20
172.79259
30
0
70
32
0
VERTEX
8
0
62
255
10
184.19704
20
169.03485
30
0
70
32
0
VERTEX
8
0
62
255
10
187.21814
20
164.96137
30
0
70
32
0
VERTEX
8
0
62
255
10
189.82542
20
160.61138
30
0
70
32
0
VERTEX
8
0
62
255
10
191.99377
20
156.02679
30
0
70
32
0
VERTEX
8
0
62
255
10
193.00785
20
153.19263
30
0
70
32
0
VERTEX
8
0
62
255
10
259.34602
20
169.11731
30
0
70
32
0
VERTEX
8
0
62
255
10
258.99921
20
171.796
30
0
70
32
0
VERTEX
8
0
62
255
10
258.86844
20
176.87335
30
0
70
32
0
VERTEX
8
0
62
255
10
259.26041
20
181.93723
30
0
70
32
0
VERTEX
8
0
62
255
10
260.17099
20
186.93397
30
0
70
32
0
VERTEX
8
0
62
255
10
261.5905
20
191.8106
30
0
70
32
0
VERTEX
8
0
62
255
10
263.31752
20
196.05711
30
0
70
32
0
VERTEX
8
0
62
255
10
206.92941
20
230.20039
30
0
70
32
0
VERTEX
8
0
62
255
10
204.81084
20
227.58417
30
0
70
32
0
VERTEX
8
0
62
255
10
201.22699
20
224.00032
30
0
70
32
0
VERTEX
8
0
62
255
10
197.28817
20
220.81072
30
0
70
32
0
VERTEX
8
0
62
255
10
193.03751
20
218.05032
30
0
70
32
0
VERTEX
8
0
62
255
10
188.5216
20
215.74935
30
0
70
32
0
VERTEX
8
0
62
255
10
183.78992
20
213.93302
30
0
70
32
0
VERTEX
8
0
62
255
10
178.89429
20
212.62124
30
0
70
32
0
VERTEX
8
0
62
255
10
173.88837
20
211.82838
30
0
70
32
0
VERTEX
8
0
62
255
10
168.82699
20
211.56313
30
0
70
32
0
VERTEX
8
0
62
255
10
165.21433
20
211.75246
30
0
70
32
0
VERTEX
8
0
62
255
10
159.98767
20
185.43987
30
0
70
32
0
VERTEX
8
0
62
255
10
164.02542
20
183.99514
30
0
70
32
0
SEQEND
8
0
0
POLYLINE
8
0
62
255
66
1
10
0
20
0
30
0
70
8
0
VERTEX
8
0
62
255
10
223.80989
20
772.08947
30
0
70
32
0
VERTEX
8
0
62
255
10
223.23398
20
767.05176
30
0
70
32
0
VERTEX
8
0
62
255
10
222.20235
20
762.08729
30
0
70
32
0
VERTEX
8
0
62
255
10
220.72355
20
757.23719
30
0
70
32
0
VERTEX
8
0
62
255
10
218.80984
20
752.54167
30
0
70
32
0
VERTEX
8
0
62
255
10
216.47707
20
748.03963
30
0
70
32
0
VERTEX
8
0
62
255
10
213.74457
20
743.76836
30
0
70
32
0
VERTEX
8
0
62
255
10
210.63498
20
739.76328
30
0
70
32
0
VERTEX
8
0
62
255
10
207.17408
20
736.05755
30
0
70
32
0
VERTEX
8
0
62
255
10
203.39054
20
732.6819
30
0
70
32
0
VERTEX
8
0
62
255
10
199.3157
20
729.66429
30
0
70
32
0
VERTEX
8
0
62
255
10
194.98335
20
727.02973
30
0
70
32
0
VERTEX
8
0
62
255
10
190.42937
20
724.80004
30
0
70
32
0
VERTEX
8
0
62
255
10
187.03664
20
723.50655
30
0
70
32
0
VERTEX
8
0
62
255
10
193.9757
20
697.33024
30
0
70
32
0
VERTEX
8
0
62
255
10
196.69212
20
697.76048
30
0
70
32
0
VERTEX
8
0
62
255
10
201.77905
20
698.02708
30
0
70
32
0
VERTEX
8
0
62
255
10
206.86598
20
697.76048
30
0
70
32
0
VERTEX
8
0
62
255
10
211.89718
20
696.96362
30
0
70
32
0
VERTEX
8
0
62
255
10
216.81753
20
695.64522
30
0
70
32
0
VERTEX
8
0
62
255
10
221.35623
20
693.90297
30
0
70
32
0
VERTEX
8
0
62
255
10
251.95828
20
746.02173
30
0
70
32
0
VERTEX
8
0
62
255
10
250.03215
20
747.45025
30
0
70
32
0
VERTEX
8
0
62
255
10
246.26956
20
750.86046
30
0
70
32
0
VERTEX
8
0
62
255
10
242.85935
20
754.62305
30
0
70
32
0
VERTEX
8
0
62
255
10
239.83436
20
758.70178
30
0
70
32
0
VERTEX
8
0
62
255
10
237.22372
20
763.05736
30
0
70
32
0
VERTEX
8
0
62
255
10
235.05258
20
767.64787
30
0
70
32
0
VERTEX
8
0
62
255
10
233.34183
20
772.42907
30
0
70
32
0
VERTEX
8
0
62
255
10
232.26881
20
776.71281
30
0
70
32
0
VERTEX
8
0
62
255
10
223.89594
20
775.86843
30
0
70
32
0
VERTEX
8
0
62
255
10
223.80989
20
772.08947
30
0
70
32
0
SEQEND
8
0
0
POLYLINE
8
0
62
255
66
1
10
0
20
0
30
0
70
8
0
VERTEX
8
0
62
255
10
231.1214
20
688.1356
30
0
70
32
0
VERTEX
8
0
62
255
10
234.34265
20
685.52708
30
0
70
32
0
VERTEX
8
0
62
255
10
237.94459
20
681.92514
30
0
70
32
0
VERTEX
8
0
62
255
10
241.1503
20
677.96643
30
0
70
32
0
VERTEX
8
0
62
255
10
243.92464
20
673.69431
30
0
70
32
0
VERTEX
8
0
62
255
10
246.23723
20
669.1556
30
0
70
32
0
VERTEX
8
0
62
255
10
248.06273
20
664.40002
30
0
70
32
0
VERTEX
8
0
62
255
10
249.38113
20
659.47967
30
0
70
32
0
VERTEX
8
0
62
255
10
250.17799
20
654.44847
30
0
70
32
0
VERTEX
8
0
62
255
10
250.42317
20
649.77032
30
0
70
32
0
VERTEX
8
0
62
255
10
395.1946
20
634.63841
30
0
70
32
0
VERTEX
8
0
62
255
10
395.21867
20
634.78815
30
0
70
32
0
VERTEX
8
0
62
255
10
396.47806
20
639.71176
30
0
70
32
0
VERTEX
8
0
62
255
10
398.17996
20
644.50044
30
0
70
32
0
VERTEX
8
0
62
255
10
400.31026
20
649.11453
30
0
70
32
0
VERTEX
8
0
62
255
10
402.85133
20
653.51578
30
0
70
32
0
VERTEX
8
0
62
255
10
405.78209
20
657.66772
30
0
70
32
0
VERTEX
8
0
62
255
10
406.78649
20
658.84644
30
0
70
32
0
VERTEX
8
0
62
255
10
316.14136
20
747.86299
30
0
70
32
0
VERTEX
8
0
62
255
10
315.68597
20
747.45025
30
0
70
32
0
VERTEX
8
0
62
255
10
311.60724
20
744.42526
30
0
70
32
0
VERTEX
8
0
62
255
10
307.25165
20
741.81462
30
0
70
32
0
VERTEX
8
0
62
255
10
302.66115
20
739.64348
30
0
70
32
0
VERTEX
8
0
62
255
10
297.87994
20
737.93273
30
0
70
32
0
VERTEX
8
0
62
255
10
292.95408
20
736.69887
30
0
70
32
0
VERTEX
8
0
62
255
10
287.93099
20
735.95376
30
0
70
32
0
VERTEX
8
0
62
255
10
282.85906
20
735.7046
30
0
70
32
0
VERTEX
8
0
62
255
10
277.78712
20
735.95376
30
0
70
32
0
VERTEX
8
0
62
255
10
272.76404
20
736.69887
30
0
70
32
0
VERTEX
8
0
62
255
10
267.83817
20
737.93273
30
0
70
32
0
VERTEX
8
0
62
255
10
263.05696
20
739.64348
30
0
70
32
0
VERTEX
8
0
62
255
10
261.73257
20
740.26987
30
0
70
32
0
VERTEX
8
0
62
255
10
231.1214
20
688.1356
30
0
70
32
0
SEQEND
8
0
0
POLYLINE
8
0
62
255
66
1
10
0
20
0
30
0
70
8
0
VERTEX
8
0
62
255
10
248.06273
20
634.32306
30
0
70
32
0
VERTEX
8
0
62
255
10
246.23723
20
629.56748
30
0
70
32
0
VERTEX
8
0
62
255
10
243.92464
20
625.02877
30
0
70
32
0
VERTEX
8
0
62
255
10
241.1503
20
620.75665
30
0
70
32
0
VERTEX
8
0
62
255
10
238.97766
20
618.07367
30
0
70
32
0
VERTEX
8
0
62
255
10
321.22324
20
532.18084
30
0
70
32
0
VERTEX
8
0
62
255
10
324.24473
20
534.42173
30
0
70
32
0
VERTEX
8
0
62
255
10
328.58526
20
537.02334
30
0
70
32
0
VERTEX
8
0
62
255
10
333.1599
20
539.18699
30
0
70
32
0
VERTEX
8
0
62
255
10
337.92458
20
540.89182
30
0
70
32
0
VERTEX
8
0
62
255
10
342.83342
20
542.12142
30
0
70
32
0
VERTEX
8
0
62
255
10
347.83914
20
542.86395
30
0
70
32
0
VERTEX
8
0
62
255
10
352.89354
20
543.11225
30
0
70
32
0
VERTEX
8
0
62
255
10
357.94794
20
542.86395
30
0
70
32
0
VERTEX
8
0
62
255
10
362.95367
20
542.12142
30
0
70
32
0
VERTEX
8
0
62
255
10
367.86251
20
540.89182
30
0
70
32
0
VERTEX
8
0
62
255
10
372.62719
20
539.18699
30
0
70
32
0
VERTEX
8
0
62
255
10
377.20182
20
537.02334
30
0
70
32
0
VERTEX
8
0
62
255
10
378.87488
20
536.02056
30
0
70
32
0
VERTEX
8
0
62
255
10
412.63015
20
581.92118
30
0
70
32
0
VERTEX
8
0
62
255
10
410.85496
20
583.505
30
0
70
32
0
VERTEX
8
0
62
255
10
407.38614
20
587.2192
30
0
70
32
0
VERTEX
8
0
62
255
10
404.26944
20
591.23344
30
0
70
32
0
VERTEX
8
0
62
255
10
401.53069
20
595.51448
30
0
70
32
0
VERTEX
8
0
62
255
10
399.19258
20
600.02682
30
0
70
32
0
VERTEX
8
0
62
255
10
397.27449
20
604.73308
30
0
70
32
0
VERTEX
8
0
62
255
10
395.79231
20
609.59427
30
0
70
32
0
VERTEX
8
0
62
255
10
394.75832
20
614.5701
30
0
70
32
0
VERTEX
8
0
62
255
10
394.18109
20
619.61933
30
0
70
32
0
VERTEX
8
0
62
255
10
394.08663
20
623.76781
30
0
70
32
0
VERTEX
8
0
62
255
10
249.28975
20
638.90239
30
0
70
32
0
VERTEX
8
0
62
255
10
248.06273
20
634.32306
30
0
70
32
0
SEQEND
8
0
0
POLYLINE
8
0
62
255
66
1
10
0
20
0
30
0
70
8
0
VERTEX
8
0
62
255
10
230.38394
20
609.99029
30
0
70
32
0
VERTEX
8
0
62
255
10
226.11182
20
607.21595
30
0
70
32
0
VERTEX
8
0
62
255
10
221.57311
20
604.90336
30
0
70
32
0
VERTEX
8
0
62
255
10
216.81753
20
603.07786
30
0
70
32
0
VERTEX
8
0
62
255
10
211.89718
20
601.75946
30
0
70
32
0
VERTEX
8
0
62
255
10
210.02085
20
601.46228
30
0
70
32
0
VERTEX
8
0
62
255
10
213.49404
20
550.33626
30
0
70
32
0
VERTEX
8
0
62
255
10
217.0262
20
550.15713
30
0
70
32
0
VERTEX
8
0
62
255
10
222.07431
20
549.38379
30
0
70
32
0
VERTEX
8
0
62
255
10
227.01829
20
548.1037
30
0
70
32
0
VERTEX
8
0
62
255
10
231.80739
20
546.33001
30
0
70
32
0
VERTEX
8
0
62
255
10
236.39248
20
544.08092
30
0
70
32
0
VERTEX
8
0
62
255
10
240.72651
20
541.3795
30
0
70
32
0
VERTEX
8
0
62
255
10
244.76501
20
538.25347
30
0
70
32
0
VERTEX
8
0
62
255
10
248.46652
20
534.73491
30
0
70
32
0
VERTEX
8
0
62
255
10
251.79309
20
530.85993
30
0
70
32
0
VERTEX
8
0
62
255
10
254.71055
20
526.66829
30
0
70
32
0
VERTEX
8
0
62
255
10
257.18899
20
522.203
30
0
70
32
0
VERTEX
8
0
62
255
10
259.20297
20
517.50988
30
0
70
32
0
VERTEX
8
0
62
255
10
260.73182
20
512.63709
30
0
70
32
0
VERTEX
8
0
62
255
10
261.75985
20
507.63463
30
0
70
32
0
VERTEX
8
0
62
255
10
262.27652
20
502.55382
30
0
70
32
0
VERTEX
8
0
62
255
10
262.27652
20
501.64042
30
0
70
32
0
VERTEX
8
0
62
255
10
301.96987
20
499.25981
30
0
70
32
0
VERTEX
8
0
62
255
10
302.31787
20
501.60587
30
0
70
32
0
VERTEX
8
0
62
255
10
303.54748
20
506.51471
30
0
70
32
0
VERTEX
8
0
62
255
10
305.25231
20
511.27939
30
0
70
32
0
VERTEX
8
0
62
255
10
307.41595
20
515.85403
30
0
70
32
0
VERTEX
8
0
62
255
10
310.01756
20
520.19456
30
0
70
32
0
VERTEX
8
0
62
255
10
313.0321
20
524.25919
30
0
70
32
0
VERTEX
8
0
62
255
10
313.66317
20
524.95548
30
0
70
32
0
VERTEX
8
0
62
255
10
231.42891
20
610.83649
30
0
70
32
0
VERTEX
8
0
62
255
10
230.38394
20
609.99029
30
0
70
32
0
SEQEND
8
0
0
POLYLINE
8
0
62
255
66
1
10
0
20
0
30
0
70
8
0
VERTEX
8
0
62
255
10
260.73182
20
487.36356
30
0
70
32
0
VERTEX
8
0
62
255
10
259.20297
20
482.49077
30
0
70
32
0
VERTEX
8
0
62
255
10
257.18899
20
477.79764
30
0
70
32
0
VERTEX
8
0
62
255
10
254.71055
20
473.33235
30
0
70
32
0
VERTEX
8
0
62
255
10
251.79309
20
469.14071
30
0
70
32
0
VERTEX
8
0
62
255
10
248.46652
20
465.26573
30
0
70
32
0
VERTEX
8
0
62
255
10
244.76501
20
461.74717
30
0
70
32
0
VERTEX
8
0
62
255
10
240.72651
20
458.62115
30
0
70
32
0
VERTEX
8
0
62
255
10
236.69074
20
456.10563
30
0
70
32
0
VERTEX
8
0
62
255
10
254.59583
20
413.88034
30
0
70
32
0
VERTEX
8
0
62
255
10
256.52872
20
414.44789
30
0
70
32
0
VERTEX
8
0
62
255
10
261.55052
20
415.31695
30
0
70
32
0
VERTEX
8
0
62
255
10
266.63866
20
415.6079
30
0
70
32
0
VERTEX
8
0
62
255
10
271.7268
20
415.31695
30
0
70
32
0
VERTEX
8
0
62
255
10
276.74861
20
414.44789
30
0
70
32
0
VERTEX
8
0
62
255
10
281.63862
20
413.01205
30
0
70
32
0
VERTEX
8
0
62
255
10
286.33308
20
411.02816
30
0
70
32
0
VERTEX
8
0
62
255
10
288.2914
20
409.92224
30
0
70
32
0
VERTEX
8
0
62
255
10
318.95864
20
452.79137
30
0
70
32
0
VERTEX
8
0
62
255
10
316.43052
20
455.08272
30
0
70
32
0
VERTEX
8
0
62
255
10
313.0321
20
458.8323
30
0
70
32
0
VERTEX
8
0
62
255
10
310.01756
20
462.89693
30
0
70
32
0
VERTEX
8
0
62
255
10
307.41595
20
467.23747
30
0
70
32
0
VERTEX
8
0
62
255
10
305.25231
20
471.8121
30
0
70
32
0
VERTEX
8
0
62
255
10
303.54748
20
476.57678
30
0
70
32
0
VERTEX
8
0
62
255
10
302.31787
20
481.48562
30
0
70
32
0
VERTEX
8
0
62
255
10
301.57535
20
486.49135
30
0
70
32
0
VERTEX
8
0
62
255
10
301.40426
20
489.97393
30
0
70
32
0
VERTEX
8
0
62
255
10
261.75693
20
492.35179
30
0
70
32
0
VERTEX
8
0
62
255
10
260.73182
20
487.36356
30
0
70
32
0
SEQEND
8
0
0
POLYLINE
8
0
62
255
66
1
10
0
20
0
30
0
70
8
0
VERTEX
8
0
62
255
10
204.40973
20
292.78529
30
0
70
32
0
VERTEX
8
0
62
255
10
204.81084
20
292.38418
30
0
70
32
0
VERTEX
8
0
62
255
10
208.00044
20
288.44535
30
0
70
32
0
VERTEX
8
0
62
255
10
210.76085
20
284.1947
30
0
70
32
0
VERTEX
8
0
62
255
10
213.06182
20
279.67879
30
0
70
32
0
VERTEX
8
0
62
255
10
214.87814
20
274.9471
30
0
70
32
0
VERTEX
8
0
62
255
10
216.18992
20
270.05147
30
0
70
32
0
VERTEX
8
0
62
255
10
216.98278
20
265.04555
30
0
70
32
0
VERTEX
8
0
62
255
10
217.24804
20
259.98417
30
0
70
32
0
VERTEX
8
0
62
255
10
216.98278
20
254.92279
30
0
70
32
0
VERTEX
8
0
62
255
10
216.18992
20
249.91687
30
0
70
32
0
VERTEX
8
0
62
255
10
214.87814
20
245.02125
30
0
70
32
0
VERTEX
8
0
62
255
10
213.06182
20
240.28956
30
0
70
32
0
VERTEX
8
0
62
255
10
212.91493
20
240.00128
30
0
70
32
0
VERTEX
8
0
62
255
10
269.2776
20
205.87341
30
0
70
32
0
VERTEX
8
0
62
255
10
271.97987
20
209.11263
30
0
70
32
0
VERTEX
8
0
62
255
10
275.61723
20
212.6575
30
0
70
32
0
VERTEX
8
0
62
255
10
279.5998
20
215.8096
30
0
70
32
0
VERTEX
8
0
62
255
10
283.88536
20
218.5355
30
0
70
32
0
VERTEX
8
0
62
255
10
288.42849
20
220.8063
30
0
70
32
0
VERTEX
8
0
62
255
10
293.18102
20
222.59794
30
0
70
32
0
VERTEX
8
0
62
255
10
298.09258
20
223.89142
30
0
70
32
0
VERTEX
8
0
62
255
10
303.11111
20
224.67303
30
0
70
32
0
VERTEX
8
0
62
255
10
308.18341
20
224.9345
30
0
70
32
0
VERTEX
8
0
62
255
10
313.2557
20
224.67303
30
0
70
32
0
VERTEX
8
0
62
255
10
318.27423
20
223.89142
30
0
70
32
0
VERTEX
8
0
62
255
10
323.18579
20
222.59794
30
0
70
32
0
VERTEX
8
0
62
255
10
327.93833
20
220.8063
30
0
70
32
0
VERTEX
8
0
62
255
10
332.48146
20
218.5355
30
0
70
32
0
VERTEX
8
0
62
255
10
336.76702
20
215.8096
30
0
70
32
0
VERTEX
8
0
62
255
10
340.74959
20
212.6575
30
0
70
32
0
VERTEX
8
0
62
255
10
344.38694
20
209.11263
30
0
70
32
0
VERTEX
8
0
62
255
10
347.64054
20
205.21254
30
0
70
32
0
VERTEX
8
0
62
255
10
350.47587
20
200.99858
30
0
70
32
0
VERTEX
8
0
62
255
10
352.8629
20
196.51543
30
0
70
32
0
VERTEX
8
0
62
255
10
354.77631
20
191.8106
30
0
70
32
0
VERTEX
8
0
62
255
10
355.96146
20
187.73913
30
0
70
32
0
VERTEX
8
0
62
255
10
392.23402
20
193.31564
30
0
70
32
0
VERTEX
8
0
62
255
10
392.09657
20
195.93839
30
0
70
32
0
VERTEX
8
0
62
255
10
392.36148
20
200.99315
30
0
70
32
0
VERTEX
8
0
62
255
10
393.1533
20
205.99253
30
0
70
32
0
VERTEX
8
0
62
255
10
394.46336
20
210.88176
30
0
70
32
0
VERTEX
8
0
62
255
10
396.27731
20
215.60726
30
0
70
32
0
VERTEX
8
0
62
255
10
398.57528
20
220.11727
30
0
70
32
0
VERTEX
8
0
62
255
10
401.33207
20
224.36236
30
0
70
32
0
VERTEX
8
0
62
255
10
404.5175
20
228.29604
30
0
70
32
0
VERTEX
8
0
62
255
10
408.09667
20
231.8752
30
0
70
32
0
VERTEX
8
0
62
255
10
412.03034
20
235.06063
30
0
70
32
0
VERTEX
8
0
62
255
10
416.27544
20
237.81743
30
0
70
32
0
VERTEX
8
0
62
255
10
420.78545
20
240.11539
30
0
70
32
0
VERTEX
8
0
62
255
10
425.51095
20
241.92934
30
0
70
32
0
VERTEX
8
0
62
255
10
430.40017
20
243.23941
30
0
70
32
0
VERTEX
8
0
62
255
10
435.39632
20
244.03072
30
0
70
32
0
VERTEX
8
0
62
255
10
435.08715
20
274.52992
30
0
70
32
0
VERTEX
8
0
62
255
10
434.14644
20
274.58092
30
0
70
32
0
VERTEX
8
0
62
255
10
429.1647
20
275.39764
30
0
70
32
0
VERTEX
8
0
62
255
10
424.30046
20
276.74819
30
0
70
32
0
VERTEX
8
0
62
255
10
419.61076
20
278.61673
30
0
70
32
0
VERTEX
8
0
62
255
10
415.15058
20
280.98138
30
0
70
32
0
VERTEX
8
0
62
255
10
410.9722
20
283.81438
30
0
70
32
0
VERTEX
8
0
62
255
10
407.12462
20
287.08255
30
0
70
32
0
VERTEX
8
0
62
255
10
403.65295
20
290.74755
30
0
70
32
0
VERTEX
8
0
62
255
10
400.59788
20
294.76642
30
0
70
32
0
VERTEX
8
0
62
255
10
397.99524
20
299.09205
30
0
70
32
0
VERTEX
8
0
62
255
10
395.87554
20
303.67371
30
0
70
32
0
VERTEX
8
0
62
255
10
394.26363
20
308.45769
30
0
70
32
0
VERTEX
8
0
62
255
10
393.1784
20
313.38791
30
0
70
32
0
VERTEX
8
0
62
255
10
392.63259
20
318.40656
30
0
70
32
0
VERTEX
8
0
62
255
10
392.63259
20
323.45481
30
0
70
32
0
VERTEX
8
0
62
255
10
393.1784
20
328.47346
30
0
70
32
0
VERTEX
8
0
62
255
10
393.32158
20
329.12394
30
0
70
32
0
VERTEX
8
0
62
255
10
307.83953
20
353.91471
30
0
70
32
0
VERTEX
8
0
62
255
10
306.11636
20
350.14149
30
0
70
32
0
VERTEX
8
0
62
255
10
303.48456
20
345.77715
30
0
70
32
0
VERTEX
8
0
62
255
10
300.37243
20
341.74126
30
0
70
32
0
VERTEX
8
0
62
255
10
296.82052
20
338.08643
30
0
70
32
0
VERTEX
8
0
62
255
10
292.87514
20
334.86032
30
0
70
32
0
VERTEX
8
0
62
255
10
288.58774
20
332.10497
30
0
70
32
0
VERTEX
8
0
62
255
10
284.01419
20
329.8563
30
0
70
32
0
VERTEX
8
0
62
255
10
279.21412
20
328.14365
30
0
70
32
0
VERTEX
8
0
62
255
10
274.25012
20
326.98932
30
0
70
32
0
VERTEX
8
0
62
255
10
269.18689
20
326.40836
30
0
70
32
0
VERTEX
8
0
62
255
10
264.09044
20
326.40836
30
0
70
32
0
VERTEX
8
0
62
255
10
259.02721
20
326.98932
30
0
70
32
0
VERTEX
8
0
62
255
10
254.0632
20
328.14365
30
0
70
32
0
VERTEX
8
0
62
255
10
249.26314
20
329.8563
30
0
70
32
0
VERTEX
8
0
62
255
10
244.68959
20
332.10497
30
0
70
32
0
VERTEX
8
0
62
255
10
241.09655
20
334.41407
30
0
70
32
0
VERTEX
8
0
62
255
10
204.40973
20
292.78529
30
0
70
32
0
SEQEND
8
0
0
POLYLINE
8
0
62
255
66
1
10
0
20
0
30
0
70
8
0
VERTEX
8
0
62
255
10
114.46262
20
445.44236
30
0
70
32
0
VERTEX
8
0
62
255
10
115.98705
20
440.58367
30
0
70
32
0
VERTEX
8
0
62
255
10
117.0121
20
435.59568
30
0
70
32
0
VERTEX
8
0
62
255
10
117.52728
20
430.52959
30
0
70
32
0
VERTEX
8
0
62
255
10
117.52728
20
425.43736
30
0
70
32
0
VERTEX
8
0
62
255
10
117.0121
20
420.37127
30
0
70
32
0
VERTEX
8
0
62
255
10
116.70916
20
418.89714
30
0
70
32
0
VERTEX
8
0
62
255
10
225.37455
20
387.81489
30
0
70
32
0
VERTEX
8
0
62
255
10
226.03618
20
389.51426
30
0
70
32
0
VERTEX
8
0
62
255
10
228.41453
20
394.02173
30
0
70
32
0
VERTEX
8
0
62
255
10
231.29118
20
398.22871
30
0
70
32
0
VERTEX
8
0
62
255
10
234.62865
20
402.08035
30
0
70
32
0
VERTEX
8
0
62
255
10
238.38342
20
405.52644
30
0
70
32
0
VERTEX
8
0
62
255
10
242.50653
20
408.52206
30
0
70
32
0
VERTEX
8
0
62
255
10
244.16644
20
409.45945
30
0
70
32
0
VERTEX
8
0
62
255
10
226.25515
20
451.69935
30
0
70
32
0
VERTEX
8
0
62
255
10
222.07431
20
450.61686
30
0
70
32
0
VERTEX
8
0
62
255
10
217.0262
20
449.84352
30
0
70
32
0
VERTEX
8
0
62
255
10
211.92575
20
449.58485
30
0
70
32
0
VERTEX
8
0
62
255
10
206.82531
20
449.84352
30
0
70
32
0
VERTEX
8
0
62
255
10
201.77719
20
450.61686
30
0
70
32
0
VERTEX
8
0
62
255
10
196.83322
20
451.89694
30
0
70
32
0
VERTEX
8
0
62
255
10
192.04412
20
453.67063
30
0
70
32
0
VERTEX
8
0
62
255
10
187.45903
20
455.91973
30
0
70
32
0
VERTEX
8
0
62
255
10
183.125
20
458.62115
30
0
70
32
0
VERTEX
8
0
62
255
10
179.0865
20
461.74717
30
0
70
32
0
VERTEX
8
0
62
255
10
175.38498
20
465.26573
30
0
70
32
0
VERTEX
8
0
62
255
10
172.05842
20
469.14071
30
0
70
32
0
VERTEX
8
0
62
255
10
169.16687
20
473.29511
30
0
70
32
0
VERTEX
8
0
62
255
10
114.24751
20
445.94364
30
0
70
32
0
VERTEX
8
0
62
255
10
114.46262
20
445.44236
30
0
70
32
0
SEQEND
8
0
0
POLYLINE
8
0
62
255
66
1
10
0
20
0
30
0
70
8
0
VERTEX
8
0
62
255
10
112.45448
20
405.84505
30
0
70
32
0
VERTEX
8
0
62
255
10
109.98321
20
401.39269
30
0
70
32
0
VERTEX
8
0
62
255
10
107.07419
20
397.21318
30
0
70
32
0
VERTEX
8
0
62
255
10
103.75725
20
393.34941
30
0
70
32
0
VERTEX
8
0
62
255
10
100.06644
20
389.84104
30
0
70
32
0
VERTEX
8
0
62
255
10
97.89822
20
388.16271
30
0
70
32
0
VERTEX
8
0
62
255
10
148.73816
20
304.01813
30
0
70
32
0
VERTEX
8
0
62
255
10
149.13238
20
304.219
30
0
70
32
0
VERTEX
8
0
62
255
10
153.86406
20
306.03532
30
0
70
32
0
VERTEX
8
0
62
255
10
158.75969
20
307.3471
30
0
70
32
0
VERTEX
8
0
62
255
10
163.76561
20
308.13996
30
0
70
32
0
VERTEX
8
0
62
255
10
168.82699
20
308.40522
30
0
70
32
0
VERTEX
8
0
62
255
10
173.88837
20
308.13996
30
0
70
32
0
VERTEX
8
0
62
255
10
178.89429
20
307.3471
30
0
70
32
0
VERTEX
8
0
62
255
10
183.78992
20
306.03532
30
0
70
32
0
VERTEX
8
0
62
255
10
188.5216
20
304.219
30
0
70
32
0
VERTEX
8
0
62
255
10
193.03751
20
301.91803
30
0
70
32
0
VERTEX
8
0
62
255
10
196.89778
20
299.41114
30
0
70
32
0
VERTEX
8
0
62
255
10
233.5855
20
341.04094
30
0
70
32
0
VERTEX
8
0
62
255
10
232.9049
20
341.74126
30
0
70
32
0
VERTEX
8
0
62
255
10
229.79276
20
345.77715
30
0
70
32
0
VERTEX
8
0
62
255
10
227.16097
20
350.14149
30
0
70
32
0
VERTEX
8
0
62
255
10
225.04383
20
354.77739
30
0
70
32
0
VERTEX
8
0
62
255
10
223.46894
20
359.6244
30
0
70
32
0
VERTEX
8
0
62
255
10
222.45683
20
364.61934
30
0
70
32
0
VERTEX
8
0
62
255
10
222.0207
20
369.6971
30
0
70
32
0
VERTEX
8
0
62
255
10
222.16624
20
374.79147
30
0
70
32
0
VERTEX
8
0
62
255
10
222.69942
20
378.49983
30
0
70
32
0
VERTEX
8
0
62
255
10
114.05552
20
409.57593
30
0
70
32
0
VERTEX
8
0
62
255
10
112.45448
20
405.84505
30
0
70
32
0
SEQEND
8
0
0
POLYLINE
8
0
62
255
66
1
10
0
20
0
30
0
70
8
0
VERTEX
8
0
62
255
10
656.7735
20
891.2339
30
0
70
32
0
VERTEX
8
0
62
255
10
652.91435
20
887.90809
30
0
70
32
0
VERTEX
8
0
62
255
10
648.68893
20
885.06205
30
0
70
32
0
VERTEX
8
0
62
255
10
644.15657
20
882.73575
30
0
70
32
0
VERTEX
8
0
62
255
10
639.38087
20
880.96183
30
0
70
32
0
VERTEX
8
0
62
255
10
634.42889
20
879.7652
30
0
70
32
0
VERTEX
8
0
62
255
10
629.37013
20
879.16266
30
0
70
32
0
VERTEX
8
0
62
255
10
624.27562
20
879.16266
30
0
70
32
0
VERTEX
8
0
62
255
10
619.21687
20
879.7652
30
0
70
32
0
VERTEX
8
0
62
255
10
614.26488
20
880.96183
30
0
70
32
0
VERTEX
8
0
62
255
10
610.64708
20
882.30566
30
0
70
32
0
VERTEX
8
0
62
255
10
584.47791
20
834.73133
30
0
70
32
0
VERTEX
8
0
62
255
10
586.33346
20
833.44472
30
0
70
32
0
VERTEX
8
0
62
255
10
590.14757
20
830.123
30
0
70
32
0
VERTEX
8
0
62
255
10
593.57312
20
826.40187
30
0
70
32
0
VERTEX
8
0
62
255
10
596.56852
20
822.32648
30
0
70
32
0
VERTEX
8
0
62
255
10
599.09741
20
817.94631
30
0
70
32
0
VERTEX
8
0
62
255
10
601.1291
20
813.31452
30
0
70
32
0
VERTEX
8
0
62
255
10
602.63893
20
808.48734
30
0
70
32
0
VERTEX
8
0
62
255
10
603.14388
20
805.90225
30
0
70
32
0
VERTEX
8
0
62
255
10
706.60411
20
815.60994
30
0
70
32
0
VERTEX
8
0
62
255
10
706.56714
20
817.04511
30
0
70
32
0
VERTEX
8
0
62
255
10
706.95929
20
822.11119
30
0
70
32
0
VERTEX
8
0
62
255
10
707.87026
20
827.1101
30
0
70
32
0
VERTEX
8
0
62
255
10
709.29039
20
831.98885
30
0
70
32
0
VERTEX
8
0
62
255
10
711.20463
20
836.69572
30
0
70
32
0
VERTEX
8
0
62
255
10
713.59269
20
841.18082
30
0
70
32
0
VERTEX
8
0
62
255
10
715.03982
20
843.33157
30
0
70
32
0
VERTEX
8
0
62
255
10
656.81837
20
891.28294
30
0
70
32
0
VERTEX
8
0
62
255
10
656.7735
20
891.2339
30
0
70
32
0
SEQEND
8
0
0
POLYLINE
8
0
62
255
66
1
10
0
20
0
30
0
70
8
0
VERTEX
8
0
62
255
10
603.98697
20
797.0587
30
0
70
32
0
VERTEX
8
0
62
255
10
603.88687
20
793.42698
30
0
70
32
0
VERTEX
8
0
62
255
10
603.19216
20
788.41713
30
0
70
32
0
VERTEX
8
0
62
255
10
601.95055
20
783.51411
30
0
70
32
0
VERTEX
8
0
62
255
10
600.1771
20
778.77744
30
0
70
32
0
VERTEX
8
0
62
255
10
597.89334
20
774.2646
30
0
70
32
0
VERTEX
8
0
62
255
10
595.12699
20
770.03039
30
0
70
32
0
VERTEX
8
0
62
255
10
592.67485
20
767.05293
30
0
70
32
0
VERTEX
8
0
62
255
10
633.23308
20
724.12599
30
0
70
32
0
VERTEX
8
0
62
255
10
636.8667
20
726.70418
30
0
70
32
0
VERTEX
8
0
62
255
10
641.30106
20
729.15496
30
0
70
32
0
VERTEX
8
0
62
255
10
645.98193
20
731.09385
30
0
70
32
0
VERTEX
8
0
62
255
10
650.85046
20
732.49644
30
0
70
32
0
VERTEX
8
0
62
255
10
655.84542
20
733.34512
30
0
70
32
0
VERTEX
8
0
62
255
10
660.904
20
733.62921
30
0
70
32
0
VERTEX
8
0
62
255
10
665.96257
20
733.34512
30
0
70
32
0
VERTEX
8
0
62
255
10
670.95753
20
732.49644
30
0
70
32
0
VERTEX
8
0
62
255
10
675.82606
20
731.09385
30
0
70
32
0
VERTEX
8
0
62
255
10
680.50694
20
729.15496
30
0
70
32
0
VERTEX
8
0
62
255
10
684.02783
20
727.20903
30
0
70
32
0
VERTEX
8
0
62
255
10
722.83451
20
779.22058
30
0
70
32
0
VERTEX
8
0
62
255
10
721.45807
20
780.4303
30
0
70
32
0
VERTEX
8
0
62
255
10
718.00652
20
784.15934
30
0
70
32
0
VERTEX
8
0
62
255
10
714.95669
20
788.22351
30
0
70
32
0
VERTEX
8
0
62
255
10
712.3409
20
792.57973
30
0
70
32
0
VERTEX
8
0
62
255
10
710.18689
20
797.18182
30
0
70
32
0
VERTEX
8
0
62
255
10
708.51749
20
801.98099
30
0
70
32
0
VERTEX
8
0
62
255
10
707.38943
20
806.76097
30
0
70
32
0
VERTEX
8
0
62
255
10
603.98697
20
797.0587
30
0
70
32
0
SEQEND
8
0
0
POLYLINE
8
0
62
255
66
1
10
0
20
0
30
0
70
8
0
VERTEX
8
0
62
255
10
629.39201
20
634.64593
30
0
70
32
0
VERTEX
8
0
62
255
10
630.79972
20
633.45021
30
0
70
32
0
VERTEX
8
0
62
255
10
634.30791
20
629.74666
30
0
70
32
0
VERTEX
8
0
62
255
10
637.3951
20
625.68552
30
0
70
32
0
VERTEX
8
0
62
255
10
640.02512
20
621.31441
30
0
70
32
0
VERTEX
8
0
62
255
10
642.16711
20
616.68456
30
0
70
32
0
VERTEX
8
0
62
255
10
643.79598
20
611.85026
30
0
70
32
0
VERTEX
8
0
62
255
10
644.89261
20
606.8682
30
0
70
32
0
VERTEX
8
0
62
255
10
645.44416
20
601.79676
30
0
70
32
0
VERTEX
8
0
62
255
10
645.44416
20
596.69543
30
0
70
32
0
VERTEX
8
0
62
255
10
644.89261
20
591.624
30
0
70
32
0
VERTEX
8
0
62
255
10
644.57633
20
590.18712
30
0
70
32
0
VERTEX
8
0
62
255
10
709.93517
20
569.88215
30
0
70
32
0
VERTEX
8
0
62
255
10
710.97501
20
572.30527
30
0
70
32
0
VERTEX
8
0
62
255
10
713.42057
20
576.71133
30
0
70
32
0
VERTEX
8
0
62
255
10
716.29934
20
580.84737
30
0
70
32
0
VERTEX
8
0
62
255
10
719.58177
20
584.67094
30
0
70
32
0
VERTEX
8
0
62
255
10
723.23419
20
588.14282
30
0
70
32
0
VERTEX
8
0
62
255
10
723.70343
20
588.50604
30
0
70
32
0
VERTEX
8
0
62
255
10
682.3535
20
648.76368
30
0
70
32
0
VERTEX
8
0
62
255
10
680.50694
20
647.74312
30
0
70
32
0
VERTEX
8
0
62
255
10
675.82606
20
645.80424
30
0
70
32
0
VERTEX
8
0
62
255
10
670.95753
20
644.40164
30
0
70
32
0
VERTEX
8
0
62
255
10
665.96257
20
643.55296
30
0
70
32
0
VERTEX
8
0
62
255
10
660.904
20
643.26888
30
0
70
32
0
VERTEX
8
0
62
255
10
655.84542
20
643.55296
30
0
70
32
0
VERTEX
8
0
62
255
10
650.85046
20
644.40164
30
0
70
32
0
VERTEX
8
0
62
255
10
645.98193
20
645.80424
30
0
70
32
0
VERTEX
8
0
62
255
10
641.30106
20
647.74312
30
0
70
32
0
VERTEX
8
0
62
255
10
639.33178
20
648.8315
30
0
70
32
0
VERTEX
8
0
62
255
10
629.39201
20
634.64593
30
0
70
32
0
SEQEND
8
0
0
POLYLINE
8
0
62
255
66
1
10
0
20
0
30
0
70
8
0
VERTEX
8
0
62
255
10
640.02512
20
577.17778
30
0
70
32
0
VERTEX
8
0
62
255
10
637.3951
20
572.80667
30
0
70
32
0
VERTEX
8
0
62
255
10
634.30791
20
568.74553
30
0
70
32
0
VERTEX
8
0
62
255
10
630.79972
20
565.04198
30
0
70
32
0
VERTEX
8
0
62
255
10
626.91168
20
561.73945
30
0
70
32
0
VERTEX
8
0
62
255
10
622.68936
20
558.87665
30
0
70
32
0
VERTEX
8
0
62
255
10
621.53304
20
558.2636
30
0
70
32
0
VERTEX
8
0
62
255
10
657.8826
20
473.97753
30
0
70
32
0
VERTEX
8
0
62
255
10
658.66885
20
474.25885
30
0
70
32
0
VERTEX
8
0
62
255
10
663.61987
20
475.49902
30
0
70
32
0
VERTEX
8
0
62
255
10
668.6686
20
476.24793
30
0
70
32
0
VERTEX
8
0
62
255
10
673.76643
20
476.49837
30
0
70
32
0
VERTEX
8
0
62
255
10
678.86426
20
476.24793
30
0
70
32
0
VERTEX
8
0
62
255
10
683.913
20
475.49902
30
0
70
32
0
VERTEX
8
0
62
255
10
688.86402
20
474.25885
30
0
70
32
0
VERTEX
8
0
62
255
10
693.66964
20
472.53937
30
0
70
32
0
VERTEX
8
0
62
255
10
697.49104
20
470.73199
30
0
70
32
0
VERTEX
8
0
62
255
10
724.24181
20
511.87146
30
0
70
32
0
VERTEX
8
0
62
255
10
723.23419
20
512.65142
30
0
70
32
0
VERTEX
8
0
62
255
10
719.58177
20
516.1233
30
0
70
32
0
VERTEX
8
0
62
255
10
716.29934
20
519.94688
30
0
70
32
0
VERTEX
8
0
62
255
10
713.42057
20
524.08291
30
0
70
32
0
VERTEX
8
0
62
255
10
710.97501
20
528.48897
30
0
70
32
0
VERTEX
8
0
62
255
10
708.98775
20
533.11984
30
0
70
32
0
VERTEX
8
0
62
255
10
707.47918
20
537.92799
30
0
70
32
0
VERTEX
8
0
62
255
10
706.46479
20
542.86409
30
0
70
32
0
VERTEX
8
0
62
255
10
705.95498
20
547.87749
30
0
70
32
0
VERTEX
8
0
62
255
10
705.95498
20
552.91675
30
0
70
32
0
VERTEX
8
0
62
255
10
706.46479
20
557.93015
30
0
70
32
0
VERTEX
8
0
62
255
10
706.93939
20
560.23959
30
0
70
32
0
VERTEX
8
0
62
255
10
641.58248
20
580.54397
30
0
70
32
0
VERTEX
8
0
62
255
10
640.02512
20
577.17778
30
0
70
32
0
SEQEND
8
0
0
POLYLINE
8
0
62
255
66
1
10
0
20
0
30
0
70
8
0
VERTEX
8
0
62
255
10
584.29499
20
759.49286
30
0
70
32
0
VERTEX
8
0
62
255
10
579.98616
20
756.84424
30
0
70
32
0
VERTEX
8
0
62
255
10
575.41212
20
754.68569
30
0
70
32
0
VERTEX
8
0
62
255
10
571.26124
20
753.26069
30
0
70
32
0
VERTEX
8
0
62
255
10
593.0666
20
646.04406
30
0
70
32
0
VERTEX
8
0
62
255
10
593.30601
20
646.08331
30
0
70
32
0
VERTEX
8
0
62
255
10
598.39986
20
646.35949
30
0
70
32
0
VERTEX
8
0
62
255
10
603.49372
20
646.08331
30
0
70
32
0
VERTEX
8
0
62
255
10
608.52785
20
645.25801
30
0
70
32
0
VERTEX
8
0
62
255
10
613.44324
20
643.89325
30
0
70
32
0
VERTEX
8
0
62
255
10
618.18227
20
642.00506
30
0
70
32
0
VERTEX
8
0
62
255
10
621.09225
20
640.46228
30
0
70
32
0
VERTEX
8
0
62
255
10
631.03179
20
654.64752
30
0
70
32
0
VERTEX
8
0
62
255
10
628.9568
20
656.50184
30
0
70
32
0
VERTEX
8
0
62
255
10
625.58072
20
660.27967
30
0
70
32
0
VERTEX
8
0
62
255
10
622.64886
20
664.41174
30
0
70
32
0
VERTEX
8
0
62
255
10
620.19808
20
668.8461
30
0
70
32
0
VERTEX
8
0
62
255
10
618.25919
20
673.52698
30
0
70
32
0
VERTEX
8
0
62
255
10
616.85659
20
678.39551
30
0
70
32
0
VERTEX
8
0
62
255
10
616.00792
20
683.39047
30
0
70
32
0
VERTEX
8
0
62
255
10
615.72383
20
688.44904
30
0
70
32
0
VERTEX
8
0
62
255
10
616.00792
20
693.50761
30
0
70
32
0
VERTEX
8
0
62
255
10
616.85659
20
698.50257
30
0
70
32
0
VERTEX
8
0
62
255
10
618.25919
20
703.3711
30
0
70
32
0
VERTEX
8
0
62
255
10
620.19808
20
708.05198
30
0
70
32
0
VERTEX
8
0
62
255
10
622.64886
20
712.48634
30
0
70
32
0
VERTEX
8
0
62
255
10
625.58072
20
716.61841
30
0
70
32
0
VERTEX
8
0
62
255
10
626.87903
20
718.07121
30
0
70
32
0
VERTEX
8
0
62
255
10
586.2819
20
761.03934
30
0
70
32
0
VERTEX
8
0
62
255
10
584.29499
20
759.49286
30
0
70
32
0
SEQEND
8
0
0
POLYLINE
8
0
62
255
66
1
10
0
20
0
30
0
70
8
0
VERTEX
8
0
62
255
10
780.21213
20
858.72535
30
0
70
32
0
VERTEX
8
0
62
255
10
784.49956
20
855.99827
30
0
70
32
0
VERTEX
8
0
62
255
10
788.48385
20
852.84481
30
0
70
32
0
VERTEX
8
0
62
255
10
792.12279
20
849.29839
30
0
70
32
0
VERTEX
8
0
62
255
10
795.3778
20
845.3966
30
0
70
32
0
VERTEX
8
0
62
255
10
795.86251
20
844.67621
30
0
70
32
0
VERTEX
8
0
62
255
10
812.89487
20
854.74933
30
0
70
32
0
VERTEX
8
0
62
255
10
812.43944
20
855.66394
30
0
70
32
0
VERTEX
8
0
62
255
10
810.73401
20
860.5036
30
0
70
32
0
VERTEX
8
0
62
255
10
809.63625
20
865.51616
30
0
70
32
0
VERTEX
8
0
62
255
10
809.16278
20
870.62562
30
0
70
32
0
VERTEX
8
0
62
255
10
809.32081
20
875.75454
30
0
70
32
0
VERTEX
8
0
62
255
10
810.10791
20
880.82517
30
0
70
32
0
VERTEX
8
0
62
255
10
811.51217
20
885.76063
30
0
70
32
0
VERTEX
8
0
62
255
10
813.5123
20
890.48612
30
0
70
32
0
VERTEX
8
0
62
255
10
816.07798
20
894.93001
30
0
70
32
0
VERTEX
8
0
62
255
10
819.17031
20
899.02492
30
0
70
32
0
VERTEX
8
0
62
255
10
822.74242
20
902.70878
30
0
70
32
0
VERTEX
8
0
62
255
10
826.74016
20
905.92574
30
0
70
32
0
VERTEX
8
0
62
255
10
831.10292
20
908.62705
30
0
70
32
0
VERTEX
8
0
62
255
10
835.76458
20
910.77175
30
0
70
32
0
VERTEX
8
0
62
255
10
839.11092
20
911.8363
30
0
70
32
0
VERTEX
8
0
62
255
10
833.63166
20
948.35257
30
0
70
32
0
VERTEX
8
0
62
255
10
829.14971
20
948.35257
30
0
70
32
0
VERTEX
8
0
62
255
10
824.08331
20
948.85954
30
0
70
32
0
VERTEX
8
0
62
255
10
819.09256
20
949.86844
30
0
70
32
0
VERTEX
8
0
62
255
10
817.0004
20
950.51379
30
0
70
32
0
VERTEX
8
0
62
255
10
779.29597
20
859.18328
30
0
70
32
0
VERTEX
8
0
62
255
10
780.21213
20
858.72535
30
0
70
32
0
SEQEND
8
0
0
POLYLINE
8
0
62
255
66
1
10
0
20
0
30
0
70
8
0
VERTEX
8
0
62
255
10
768.47225
20
768.0489
30
0
70
32
0
VERTEX
8
0
62
255
10
763.49845
20
767.00952
30
0
70
32
0
VERTEX
8
0
62
255
10
758.44415
20
766.48706
30
0
70
32
0
VERTEX
8
0
62
255
10
753.36291
20
766.48706
30
0
70
32
0
VERTEX
8
0
62
255
10
748.30861
20
767.00952
30
0
70
32
0
VERTEX
8
0
62
255
10
743.33481
20
768.0489
30
0
70
32
0
VERTEX
8
0
62
255
10
738.49424
20
769.59418
30
0
70
32
0
VERTEX
8
0
62
255
10
733.83822
20
771.62898
30
0
70
32
0
VERTEX
8
0
62
255
10
730.26882
20
773.64913
30
0
70
32
0
VERTEX
8
0
62
255
10
691.46214
20
721.63758
30
0
70
32
0
VERTEX
8
0
62
255
10
692.8512
20
720.39624
30
0
70
32
0
VERTEX
8
0
62
255
10
696.22727
20
716.61841
30
0
70
32
0
VERTEX
8
0
62
255
10
699.15914
20
712.48634
30
0
70
32
0
VERTEX
8
0
62
255
10
701.60992
20
708.05198
30
0
70
32
0
VERTEX
8
0
62
255
10
703.5488
20
703.3711
30
0
70
32
0
VERTEX
8
0
62
255
10
704.9514
20
698.50257
30
0
70
32
0
VERTEX
8
0
62
255
10
705.80008
20
693.50761
30
0
70
32
0
VERTEX
8
0
62
255
10
706.08416
20
688.44904
30
0
70
32
0
VERTEX
8
0
62
255
10
705.80008
20
683.39047
30
0
70
32
0
VERTEX
8
0
62
255
10
704.9514
20
678.39551
30
0
70
32
0
VERTEX
8
0
62
255
10
703.5488
20
673.52698
30
0
70
32
0
VERTEX
8
0
62
255
10
701.60992
20
668.8461
30
0
70
32
0
VERTEX
8
0
62
255
10
699.15914
20
664.41174
30
0
70
32
0
VERTEX
8
0
62
255
10
696.22727
20
660.27967
30
0
70
32
0
VERTEX
8
0
62
255
10
692.8512
20
656.50184
30
0
70
32
0
VERTEX
8
0
62
255
10
690.22227
20
654.15248
30
0
70
32
0
VERTEX
8
0
62
255
10
731.55388
20
593.92153
30
0
70
32
0
VERTEX
8
0
62
255
10
736.01992
20
596.11223
30
0
70
32
0
VERTEX
8
0
62
255
10
740.74549
20
597.86239
30
0
70
32
0
VERTEX
8
0
62
255
10
745.62388
20
599.12549
30
0
70
32
0
VERTEX
8
0
62
255
10
750.60503
20
599.88857
30
0
70
32
0
VERTEX
8
0
62
255
10
755.63781
20
600.14381
30
0
70
32
0
VERTEX
8
0
62
255
10
760.6706
20
599.88857
30
0
70
32
0
VERTEX
8
0
62
255
10
765.65175
20
599.12549
30
0
70
32
0
VERTEX
8
0
62
255
10
770.53014
20
597.86239
30
0
70
32
0
VERTEX
8
0
62
255
10
775.13757
20
596.15598
30
0
70
32
0
VERTEX
8
0
62
255
10
789.66533
20
623.50773
30
0
70
32
0
VERTEX
8
0
62
255
10
788.85053
20
623.9961
30
0
70
32
0
VERTEX
8
0
62
255
10
784.7834
20
627.01249
30
0
70
32
0
VERTEX
8
0
62
255
10
781.0315
20
630.41301
30
0
70
32
0
VERTEX
8
0
62
255
10
777.63099
20
634.1649
30
0
70
32
0
VERTEX
8
0
62
255
10
774.61459
20
638.23204
30
0
70
32
0
VERTEX
8
0
62
255
10
772.01137
20
642.57525
30
0
70
32
0
VERTEX
8
0
62
255
10
769.8464
20
647.15271
30
0
70
32
0
VERTEX
8
0
62
255
10
768.14052
20
651.92033
30
0
70
32
0
VERTEX
8
0
62
255
10
766.91016
20
656.83219
30
0
70
32
0
VERTEX
8
0
62
255
10
766.16717
20
661.841
30
0
70
32
0
VERTEX
8
0
62
255
10
765.91871
20
666.89852
30
0
70
32
0
VERTEX
8
0
62
255
10
766.16717
20
671.95604
30
0
70
32
0
VERTEX
8
0
62
255
10
766.91016
20
676.96485
30
0
70
32
0
VERTEX
8
0
62
255
10
768.14052
20
681.87672
30
0
70
32
0
VERTEX
8
0
62
255
10
769.8464
20
686.64434
30
0
70
32
0
VERTEX
8
0
62
255
10
772.01137
20
691.2218
30
0
70
32
0
VERTEX
8
0
62
255
10
774.61459
20
695.56501
30
0
70
32
0
VERTEX
8
0
62
255
10
777.63099
20
699.63214
30
0
70
32
0
VERTEX
8
0
62
255
10
781.0315
20
703.38404
30
0
70
32
0
VERTEX
8
0
62
255
10
784.7834
20
706.78455
30
0
70
32
0
VERTEX
8
0
62
255
10
788.85053
20
709.80095
30
0
70
32
0
VERTEX
8
0
62
255
10
793.19374
20
712.40417
30
0
70
32
0
VERTEX
8
0
62
255
10
793.77443
20
712.67881
30
0
70
32
0
VERTEX
8
0
62
255
10
770.58053
20
768.72193
30
0
70
32
0
VERTEX
8
0
62
255
10
768.47225
20
768.0489
30
0
70
32
0
SEQEND
8
0
0
POLYLINE
8
0
62
255
66
1
10
0
20
0
30
0
70
8
0
VERTEX
8
0
62
255
10
654.57345
20
312.82899
30
0
70
32
0
VERTEX
8
0
62
255
10
659.16087
20
310.65931
30
0
70
32
0
VERTEX
8
0
62
255
10
663.51354
20
308.05042
30
0
70
32
0
VERTEX
8
0
62
255
10
667.58952
20
305.02746
30
0
70
32
0
VERTEX
8
0
62
255
10
671.34958
20
301.61954
30
0
70
32
0
VERTEX
8
0
62
255
10
674.7575
20
297.85948
30
0
70
32
0
VERTEX
8
0
62
255
10
677.78046
20
293.78349
30
0
70
32
0
VERTEX
8
0
62
255
10
680.38935
20
289.43083
30
0
70
32
0
VERTEX
8
0
62
255
10
682.55904
20
284.84341
30
0
70
32
0
VERTEX
8
0
62
255
10
684.26863
20
280.06542
30
0
70
32
0
VERTEX
8
0
62
255
10
685.50167
20
275.14286
30
0
70
32
0
VERTEX
8
0
62
255
10
686.24627
20
270.12314
30
0
70
32
0
VERTEX
8
0
62
255
10
686.41676
20
266.65277
30
0
70
32
0
VERTEX
8
0
62
255
10
733.3484
20
262.24968
30
0
70
32
0
VERTEX
8
0
62
255
10
733.67047
20
263.81691
30
0
70
32
0
VERTEX
8
0
62
255
10
735.19588
20
268.67873
30
0
70
32
0
VERTEX
8
0
62
255
10
737.20532
20
273.36128
30
0
70
32
0
VERTEX
8
0
62
255
10
739.67818
20
277.81652
30
0
70
32
0
VERTEX
8
0
62
255
10
742.58908
20
281.99872
30
0
70
32
0
VERTEX
8
0
62
255
10
745.90815
20
285.86497
30
0
70
32
0
VERTEX
8
0
62
255
10
749.60133
20
289.37561
30
0
70
32
0
VERTEX
8
0
62
255
10
751.56125
20
290.8927
30
0
70
32
0
VERTEX
8
0
62
255
10
696.96913
20
377.99873
30
0
70
32
0
VERTEX
8
0
62
255
10
693.66964
20
376.43819
30
0
70
32
0
VERTEX
8
0
62
255
10
688.86402
20
374.71871
30
0
70
32
0
VERTEX
8
0
62
255
10
683.913
20
373.47854
30
0
70
32
0
VERTEX
8
0
62
255
10
678.86426
20
372.72963
30
0
70
32
0
VERTEX
8
0
62
255
10
673.76643
20
372.47919
30
0
70
32
0
VERTEX
8
0
62
255
10
668.6686
20
372.72963
30
0
70
32
0
VERTEX
8
0
62
255
10
667.15577
20
372.95404
30
0
70
32
0
VERTEX
8
0
62
255
10
652.62556
20
313.52596
30
0
70
32
0
VERTEX
8
0
62
255
10
654.57345
20
312.82899
30
0
70
32
0
SEQEND
8
0
0
POLYLINE
8
0
62
255
66
1
10
0
20
0
30
0
70
8
0
VERTEX
8
0
62
255
10
684.26863
20
250.04382
30
0
70
32
0
VERTEX
8
0
62
255
10
682.55904
20
245.26582
30
0
70
32
0
VERTEX
8
0
62
255
10
680.38935
20
240.67841
30
0
70
32
0
VERTEX
8
0
62
255
10
677.78046
20
236.32574
30
0
70
32
0
VERTEX
8
0
62
255
10
674.7575
20
232.24975
30
0
70
32
0
VERTEX
8
0
62
255
10
671.34958
20
228.4897
30
0
70
32
0
VERTEX
8
0
62
255
10
667.58952
20
225.08178
30
0
70
32
0
VERTEX
8
0
62
255
10
663.51354
20
222.05882
30
0
70
32
0
VERTEX
8
0
62
255
10
659.28254
20
219.52286
30
0
70
32
0
VERTEX
8
0
62
255
10
676.10265
20
178.95784
30
0
70
32
0
VERTEX
8
0
62
255
10
676.32072
20
179.03457
30
0
70
32
0
VERTEX
8
0
62
255
10
681.26342
20
180.25284
30
0
70
32
0
VERTEX
8
0
62
255
10
686.30062
20
180.98838
30
0
70
32
0
VERTEX
8
0
62
255
10
691.3853
20
181.23432
30
0
70
32
0
VERTEX
8
0
62
255
10
696.46998
20
180.98838
30
0
70
32
0
VERTEX
8
0
62
255
10
701.50718
20
180.25284
30
0
70
32
0
VERTEX
8
0
62
255
10
706.44988
20
179.03457
30
0
70
32
0
VERTEX
8
0
62
255
10
711.25192
20
177.34495
30
0
70
32
0
VERTEX
8
0
62
255
10
715.86848
20
175.19976
30
0
70
32
0
VERTEX
8
0
62
255
10
719.04311
20
173.33263
30
0
70
32
0
VERTEX
8
0
62
255
10
748.95381
20
213.65711
30
0
70
32
0
VERTEX
8
0
62
255
10
745.90815
20
216.55223
30
0
70
32
0
VERTEX
8
0
62
255
10
742.58908
20
220.41848
30
0
70
32
0
VERTEX
8
0
62
255
10
739.67818
20
224.60069
30
0
70
32
0
VERTEX
8
0
62
255
10
737.20532
20
229.05592
30
0
70
32
0
VERTEX
8
0
62
255
10
735.19588
20
233.73847
30
0
70
32
0
VERTEX
8
0
62
255
10
733.67047
20
238.60029
30
0
70
32
0
VERTEX
8
0
62
255
10
732.64475
20
243.59149
30
0
70
32
0
VERTEX
8
0
62
255
10
732.12925
20
248.66085
30
0
70
32
0
VERTEX
8
0
62
255
10
732.12925
20
249.4796
30
0
70
32
0
VERTEX
8
0
62
255
10
685.22947
20
253.8797
30
0
70
32
0
VERTEX
8
0
62
255
10
684.26863
20
250.04382
30
0
70
32
0
SEQEND
8
0
0
POLYLINE
8
0
62
255
66
1
10
0
20
0
30
0
70
8
0
VERTEX
8
0
62
255
10
127.80311
20
635.96847
30
0
70
32
0
VERTEX
8
0
62
255
10
132.83006
20
635.14434
30
0
70
32
0
VERTEX
8
0
62
255
10
137.73843
20
633.78153
30
0
70
32
0
VERTEX
8
0
62
255
10
142.47069
20
631.89603
30
0
70
32
0
VERTEX
8
0
62
255
10
146.97135
20
629.50993
30
0
70
32
0
VERTEX
8
0
62
255
10
151.18765
20
626.65121
30
0
70
32
0
VERTEX
8
0
62
255
10
155.07014
20
623.35339
30
0
70
32
0
VERTEX
8
0
62
255
10
157.39514
20
620.89892
30
0
70
32
0
VERTEX
8
0
62
255
10
160.68811
20
623.40474
30
0
70
32
0
VERTEX
8
0
62
255
10
159.63346
20
625.02877
30
0
70
32
0
VERTEX
8
0
62
255
10
157.32087
20
629.56748
30
0
70
32
0
VERTEX
8
0
62
255
10
155.49537
20
634.32306
30
0
70
32
0
VERTEX
8
0
62
255
10
154.17697
20
639.2434
30
0
70
32
0
VERTEX
8
0
62
255
10
153.38011
20
644.27461
30
0
70
32
0
VERTEX
8
0
62
255
10
153.11351
20
649.36154
30
0
70
32
0
VERTEX
8
0
62
255
10
153.38011
20
654.44847
30
0
70
32
0
VERTEX
8
0
62
255
10
154.17697
20
659.47967
30
0
70
32
0
VERTEX
8
0
62
255
10
155.49537
20
664.40002
30
0
70
32
0
VERTEX
8
0
62
255
10
157.32087
20
669.1556
30
0
70
32
0
VERTEX
8
0
62
255
10
159.63346
20
673.69431
30
0
70
32
0
VERTEX
8
0
62
255
10
162.4078
20
677.96643
30
0
70
32
0
VERTEX
8
0
62
255
10
165.61351
20
681.92514
30
0
70
32
0
VERTEX
8
0
62
255
10
169.21545
20
685.52708
30
0
70
32
0
VERTEX
8
0
62
255
10
173.17416
20
688.73279
30
0
70
32
0
VERTEX
8
0
62
255
10
177.44628
20
691.50713
30
0
70
32
0
VERTEX
8
0
62
255
10
181.98499
20
693.81972
30
0
70
32
0
VERTEX
8
0
62
255
10
184.7951
20
694.89842
30
0
70
32
0
VERTEX
8
0
62
255
10
177.85424
20
721.08154
30
0
70
32
0
VERTEX
8
0
62
255
10
175.82233
20
720.70734
30
0
70
32
0
VERTEX
8
0
62
255
10
170.77282
20
720.24625
30
0
70
32
0
VERTEX
8
0
62
255
10
165.70229
20
720.24625
30
0
70
32
0
VERTEX
8
0
62
255
10
160.65277
20
720.70734
30
0
70
32
0
VERTEX
8
0
62
255
10
155.6661
20
721.6257
30
0
70
32
0
VERTEX
8
0
62
255
10
150.78361
20
722.99371
30
0
70
32
0
VERTEX
8
0
62
255
10
146.04574
20
724.80004
30
0
70
32
0
VERTEX
8
0
62
255
10
141.49176
20
727.02973
30
0
70
32
0
VERTEX
8
0
62
255
10
137.1594
20
729.66429
30
0
70
32
0
VERTEX
8
0
62
255
10
133.08457
20
732.6819
30
0
70
32
0
VERTEX
8
0
62
255
10
129.30103
20
736.05755
30
0
70
32
0
VERTEX
8
0
62
255
10
125.84012
20
739.76328
30
0
70
32
0
VERTEX
8
0
62
255
10
122.73054
20
743.76836
30
0
70
32
0
VERTEX
8
0
62
255
10
119.99804
20
748.03963
30
0
70
32
0
VERTEX
8
0
62
255
10
117.66527
20
752.54167
30
0
70
32
0
VERTEX
8
0
62
255
10
115.75155
20
757.23719
30
0
70
32
0
VERTEX
8
0
62
255
10
114.27275
20
762.08729
30
0
70
32
0
VERTEX
8
0
62
255
10
113.24113
20
767.05176
30
0
70
32
0
VERTEX
8
0
62
255
10
112.66521
20
772.08947
30
0
70
32
0
VERTEX
8
0
62
255
10
112.54979
20
777.15868
30
0
70
32
0
VERTEX
8
0
62
255
10
112.89582
20
782.21739
30
0
70
32
0
VERTEX
8
0
62
255
10
113.70042
20
787.22367
30
0
70
32
0
VERTEX
8
0
62
255
10
114.95694
20
792.13604
30
0
70
32
0
VERTEX
8
0
62
255
10
116.65495
20
796.9138
30
0
70
32
0
VERTEX
8
0
62
255
10
118.7804
20
801.51735
30
0
70
32
0
VERTEX
8
0
62
255
10
121.31566
20
805.90856
30
0
70
32
0
VERTEX
8
0
62
255
10
124.23973
20
810.05103
30
0
70
32
0
VERTEX
8
0
62
255
10
127.52839
20
813.91043
30
0
70
32
0
VERTEX
8
0
62
255
10
131.15437
20
817.45479
30
0
70
32
0
VERTEX
8
0
62
255
10
135.08763
20
820.65474
30
0
70
32
0
VERTEX
8
0
62
255
10
139.29559
20
823.48376
30
0
70
32
0
VERTEX
8
0
62
255
10
143.74336
20
825.91841
30
0
70
32
0
VERTEX
8
0
62
255
10
148.39411
20
827.93851
30
0
70
32
0
VERTEX
8
0
62
255
10
153.20928
20
829.52733
30
0
70
32
0
VERTEX
8
0
62
255
10
158.14898
20
830.6717
30
0
70
32
0
VERTEX
8
0
62
255
10
163.17228
20
831.36213
30
0
70
32
0
VERTEX
8
0
62
255
10
168.23755
20
831.59292
30
0
70
32
0
VERTEX
8
0
62
255
10
173.30282
20
831.36213
30
0
70
32
0
VERTEX
8
0
62
255
10
178.32612
20
830.6717
30
0
70
32
0
VERTEX
8
0
62
255
10
183.26583
20
829.52733
30
0
70
32
0
VERTEX
8
0
62
255
10
188.081
20
827.93851
30
0
70
32
0
VERTEX
8
0
62
255
10
192.73174
20
825.91841
30
0
70
32
0
VERTEX
8
0
62
255
10
197.17952
20
823.48376
30
0
70
32
0
VERTEX
8
0
62
255
10
201.38747
20
820.65474
30
0
70
32
0
VERTEX
8
0
62
255
10
205.32074
20
817.45479
30
0
70
32
0
VERTEX
8
0
62
255
10
208.94672
20
813.91043
30
0
70
32
0
VERTEX
8
0
62
255
10
212.23537
20
810.05103
30
0
70
32
0
VERTEX
8
0
62
255
10
215.15944
20
805.90856
30
0
70
32
0
VERTEX
8
0
62
255
10
217.69471
20
801.51735
30
0
70
32
0
VERTEX
8
0
62
255
10
219.82015
20
796.9138
30
0
70
32
0
VERTEX
8
0
62
255
10
221.51817
20
792.13604
30
0
70
32
0
VERTEX
8
0
62
255
10
222.77468
20
787.22367
30
0
70
32
0
VERTEX
8
0
62
255
10
222.80596
20
787.02905
30
0
70
32
0
VERTEX
8
0
62
255
10
231.13428
20
787.86894
30
0
70
32
0
VERTEX
8
0
62
255
10
231.36286
20
792.52189
30
0
70
32
0
VERTEX
8
0
62
255
10
232.10797
20
797.54498
30
0
70
32
0
VERTEX
8
0
62
255
10
233.34183
20
802.47084
30
0
70
32
0
VERTEX
8
0
62
255
10
235.05258
20
807.25205
30
0
70
32
0
VERTEX
8
0
62
255
10
237.22372
20
811.84255
30
0
70
32
0
VERTEX
8
0
62
255
10
239.83436
20
816.19814
30
0
70
32
0
VERTEX
8
0
62
255
10
242.85935
20
820.27687
30
0
70
32
0
VERTEX
8
0
62
255
10
246.26956
20
824.03946
30
0
70
32
0
VERTEX
8
0
62
255
10
250.03215
20
827.44967
30
0
70
32
0
VERTEX
8
0
62
255
10
254.11087
20
830.47466
30
0
70
32
0
VERTEX
8
0
62
255
10
258.46646
20
833.08529
30
0
70
32
0
VERTEX
8
0
62
255
10
263.05696
20
835.25644
30
0
70
32
0
VERTEX
8
0
62
255
10
267.83817
20
836.96718
30
0
70
32
0
VERTEX
8
0
62
255
10
272.76404
20
838.20105
30
0
70
32
0
VERTEX
8
0
62
255
10
277.78712
20
838.94615
30
0
70
32
0
VERTEX
8
0
62
255
10
282.85906
20
839.19532
30
0
70
32
0
VERTEX
8
0
62
255
10
287.93099
20
838.94615
30
0
70
32
0
VERTEX
8
0
62
255
10
292.95408
20
838.20105
30
0
70
32
0
VERTEX
8
0
62
255
10
297.87994
20
836.96718
30
0
70
32
0
VERTEX
8
0
62
255
10
302.66115
20
835.25644
30
0
70
32
0
VERTEX
8
0
62
255
10
307.25165
20
833.08529
30
0
70
32
0
VERTEX
8
0
62
255
10
311.60724
20
830.47466
30
0
70
32
0
VERTEX
8
0
62
255
10
315.68597
20
827.44967
30
0
70
32
0
VERTEX
8
0
62
255
10
319.44855
20
824.03946
30
0
70
32
0
VERTEX
8
0
62
255
10
322.85876
20
820.27687
30
0
70
32
0
VERTEX
8
0
62
255
10
325.88375
20
816.19814
30
0
70
32
0
VERTEX
8
0
62
255
10
328.49439
20
811.84255
30
0
70
32
0
VERTEX
8
0
62
255
10
329.17144
20
810.41106
30
0
70
32
0
VERTEX
8
0
62
255
10
358.92627
20
821.7686
30
0
70
32
0
VERTEX
8
0
62
255
10
357.99871
20
825.47165
30
0
70
32
0
VERTEX
8
0
62
255
10
357.24848
20
830.52924
30
0
70
32
0
VERTEX
8
0
62
255
10
356.9976
20
835.63602
30
0
70
32
0
VERTEX
8
0
62
255
10
357.24848
20
840.74279
30
0
70
32
0
VERTEX
8
0
62
255
10
357.99871
20
845.80039
30
0
70
32
0
VERTEX
8
0
62
255
10
359.24105
20
850.76009
30
0
70
32
0
VERTEX
8
0
62
255
10
360.96354
20
855.57414
30
0
70
32
0
VERTEX
8
0
62
255
10
363.1496
20
860.19618
30
0
70
32
0
VERTEX
8
0
62
255
10
365.77818
20
864.58169
30
0
70
32
0
VERTEX
8
0
62
255
10
368.82395
20
868.68844
30
0
70
32
0
VERTEX
8
0
62
255
10
372.25758
20
872.47687
30
0
70
32
0
VERTEX
8
0
62
255
10
376.04602
20
875.91051
30
0
70
32
0
VERTEX
8
0
62
255
10
380.15277
20
878.95628
30
0
70
32
0
VERTEX
8
0
62
255
10
384.53827
20
881.58485
30
0
70
32
0
VERTEX
8
0
62
255
10
389.16031
20
883.77091
30
0
70
32
0
VERTEX
8
0
62
255
10
393.97436
20
885.49341
30
0
70
32
0
VERTEX
8
0
62
255
10
398.93407
20
886.73575
30
0
70
32
0
VERTEX
8
0
62
255
10
403.99166
20
887.48597
30
0
70
32
0
VERTEX
8
0
62
255
10
409.09844
20
887.73685
30
0
70
32
0
VERTEX
8
0
62
255
10
414.20521
20
887.48597
30
0
70
32
0
VERTEX
8
0
62
255
10
419.26281
20
886.73575
30
0
70
32
0
VERTEX
8
0
62
255
10
424.22251
20
885.49341
30
0
70
32
0
VERTEX
8
0
62
255
10
429.03656
20
883.77091
30
0
70
32
0
VERTEX
8
0
62
255
10
433.6586
20
881.58485
30
0
70
32
0
VERTEX
8
0
62
255
10
438.04411
20
878.95628
30
0
70
32
0
VERTEX
8
0
62
255
10
442.15086
20
875.91051
30
0
70
32
0
VERTEX
8
0
62
255
10
445.93929
20
872.47687
30
0
70
32
0
VERTEX
8
0
62
255
10
449.37293
20
868.68844
30
0
70
32
0
VERTEX
8
0
62
255
10
452.4187
20
864.58169
30
0
70
32
0
VERTEX
8
0
62
255
10
455.04727
20
860.19618
30
0
70
32
0
VERTEX
8
0
62
255
10
457.23333
20
855.57414
30
0
70
32
0
VERTEX
8
0
62
255
10
458.95583
20
850.76009
30
0
70
32
0
VERTEX
8
0
62
255
10
460.19817
20
845.80039
30
0
70
32
0
VERTEX
8
0
62
255
10
460.94839
20
840.74279
30
0
70
32
0
VERTEX
8
0
62
255
10
461.19927
20
835.63602
30
0
70
32
0
VERTEX
8
0
62
255
10
460.94839
20
830.52924
30
0
70
32
0
VERTEX
8
0
62
255
10
460.60253
20
828.19764
30
0
70
32
0
VERTEX
8
0
62
255
10
515.46948
20
814.05443
30
0
70
32
0
VERTEX
8
0
62
255
10
517.17662
20
817.94631
30
0
70
32
0
VERTEX
8
0
62
255
10
519.70551
20
822.32648
30
0
70
32
0
VERTEX
8
0
62
255
10
522.70091
20
826.40187
30
0
70
32
0
VERTEX
8
0
62
255
10
526.12646
20
830.123
30
0
70
32
0
VERTEX
8
0
62
255
10
529.94057
20
833.44472
30
0
70
32
0
VERTEX
8
0
62
255
10
534.09695
20
836.32669
30
0
70
32
0
VERTEX
8
0
62
255
10
538.54514
20
838.73393
30
0
70
32
0
VERTEX
8
0
62
255
10
543.23115
20
840.63722
30
0
70
32
0
VERTEX
8
0
62
255
10
548.0981
20
842.01346
30
0
70
32
0
VERTEX
8
0
62
255
10
553.08691
20
842.84595
30
0
70
32
0
VERTEX
8
0
62
255
10
558.13702
20
843.12457
30
0
70
32
0
VERTEX
8
0
62
255
10
563.18712
20
842.84595
30
0
70
32
0
VERTEX
8
0
62
255
10
568.17593
20
842.01346
30
0
70
32
0
VERTEX
8
0
62
255
10
573.04288
20
840.63722
30
0
70
32
0
VERTEX
8
0
62
255
10
575.71721
20
839.551
30
0
70
32
0
VERTEX
8
0
62
255
10
601.88831
20
887.12885
30
0
70
32
0
VERTEX
8
0
62
255
10
600.7314
20
887.90809
30
0
70
32
0
VERTEX
8
0
62
255
10
596.87225
20
891.2339
30
0
70
32
0
VERTEX
8
0
62
255
10
593.43354
20
894.9928
30
0
70
32
0
VERTEX
8
0
62
255
10
590.46355
20
899.13202
30
0
70
32
0
VERTEX
8
0
62
255
10
588.00396
20
903.59346
30
0
70
32
0
VERTEX
8
0
62
255
10
586.0893
20
908.3145
30
0
70
32
0
VERTEX
8
0
62
255
10
584.74645
20
913.22884
30
0
70
32
0
VERTEX
8
0
62
255
10
583.99426
20
918.26752
30
0
70
32
0
VERTEX
8
0
62
255
10
583.8433
20
923.35979
30
0
70
32
0
VERTEX
8
0
62
255
10
584.29567
20
928.43418
30
0
70
32
0
VERTEX
8
0
62
255
10
585.34503
20
933.41945
30
0
70
32
0
VERTEX
8
0
62
255
10
586.97665
20
938.24562
30
0
70
32
0
VERTEX
8
0
62
255
10
589.16762
20
942.84493
30
0
70
32
0
VERTEX
8
0
62
255
10
591.88719
20
947.15283
30
0
70
32
0
VERTEX
8
0
62
255
10
595.09718
20
951.10884
30
0
70
32
0
VERTEX
8
0
62
255
10
598.75253
20
954.65743
30
0
70
32
0
VERTEX
8
0
62
255
10
602.80192
20
957.74878
30
0
70
32
0
VERTEX
8
0
62
255
10
607.18852
20
960.3395
30
0
70
32
0
VERTEX
8
0
62
255
10
611.85074
20
962.39321
30
0
70
32
0
VERTEX
8
0
62
255
10
616.72314
20
963.8811
30
0
70
32
0
VERTEX
8
0
62
255
10
621.73731
20
964.78227
30
0
70
32
0
VERTEX
8
0
62
255
10
626.82288
20
965.08407
30
0
70
32
0
VERTEX
8
0
62
255
10
631.90844
20
964.78227
30
0
70
32
0
VERTEX
8
0
62
255
10
636.92262
20
963.8811
30
0
70
32
0
VERTEX
8
0
62
255
10
641.79501
20
962.39321
30
0
70
32
0
VERTEX
8
0
62
255
10
646.45723
20
960.3395
30
0
70
32
0
VERTEX
8
0
62
255
10
650.84383
20
957.74878
30
0
70
32
0
VERTEX
8
0
62
255
10
654.89323
20
954.65743
30
0
70
32
0
VERTEX
8
0
62
255
10
658.54858
20
951.10884
30
0
70
32
0
VERTEX
8
0
62
255
10
661.75857
20
947.15283
30
0
70
32
0
VERTEX
8
0
62
255
10
664.47814
20
942.84493
30
0
70
32
0
VERTEX
8
0
62
255
10
666.66911
20
938.24562
30
0
70
32
0
VERTEX
8
0
62
255
10
668.30073
20
933.41945
30
0
70
32
0
VERTEX
8
0
62
255
10
669.35009
20
928.43418
30
0
70
32
0
VERTEX
8
0
62
255
10
669.80246
20
923.35979
30
0
70
32
0
VERTEX
8
0
62
255
10
669.65149
20
918.26752
30
0
70
32
0
VERTEX
8
0
62
255
10
668.8993
20
913.22884
30
0
70
32
0
VERTEX
8
0
62
255
10
667.55646
20
908.3145
30
0
70
32
0
VERTEX
8
0
62
255
10
665.6418
20
903.59346
30
0
70
32
0
VERTEX
8
0
62
255
10
663.18221
20
899.13202
30
0
70
32
0
VERTEX
8
0
62
255
10
662.77911
20
898.57023
30
0
70
32
0
VERTEX
8
0
62
255
10
721.0215
20
850.60162
30
0
70
32
0
VERTEX
8
0
62
255
10
723.32321
20
852.84481
30
0
70
32
0
VERTEX
8
0
62
255
10
727.30751
20
855.99827
30
0
70
32
0
VERTEX
8
0
62
255
10
731.59493
20
858.72535
30
0
70
32
0
VERTEX
8
0
62
255
10
736.14003
20
860.99714
30
0
70
32
0
VERTEX
8
0
62
255
10
740.89463
20
862.78956
30
0
70
32
0
VERTEX
8
0
62
255
10
745.80832
20
864.0836
30
0
70
32
0
VERTEX
8
0
62
255
10
750.82903
20
864.86555
30
0
70
32
0
VERTEX
8
0
62
255
10
755.90353
20
865.12713
30
0
70
32
0
VERTEX
8
0
62
255
10
760.97803
20
864.86555
30
0
70
32
0
VERTEX
8
0
62
255
10
765.99874
20
864.0836
30
0
70
32
0
VERTEX
8
0
62
255
10
769.94635
20
863.04398
30
0
70
32
0
VERTEX
8
0
62
255
10
807.65036
20
954.37346
30
0
70
32
0
VERTEX
8
0
62
255
10
805.06355
20
955.78217
30
0
70
32
0
VERTEX
8
0
62
255
10
800.85658
20
958.65043
30
0
70
32
0
VERTEX
8
0
62
255
10
796.95611
20
961.92331
30
0
70
32
0
VERTEX
8
0
62
255
10
793.4009
20
965.56829
30
0
70
32
0
VERTEX
8
0
62
255
10
790.22627
20
969.54915
30
0
70
32
0
VERTEX
8
0
62
255
10
787.46379
20
973.82631
30
0
70
32
0
VERTEX
8
0
62
255
10
785.1409
20
978.35727
30
0
70
32
0
VERTEX
8
0
62
255
10
783.28069
20
983.097
30
0
70
32
0
VERTEX
8
0
62
255
10
781.90165
20
987.9984
30
0
70
32
0
VERTEX
8
0
62
255
10
781.01749
20
993.01275
30
0
70
32
0
VERTEX
8
0
62
255
10
780.63699
20
998.09021
30
0
70
32
0
VERTEX
8
0
62
255
10
780.76393
20
1003.1803
30
0
70
32
0
VERTEX
8
0
62
255
10
781.39705
20
1008.2325
30
0
70
32
0
VERTEX
8
0
62
255
10
782.53006
20
1013.1966
30
0
70
32
0
VERTEX
8
0
62
255
10
784.1517
20
1018.0231
30
0
70
32
0
VERTEX
8
0
62
255
10
786.24585
20
1022.6642
30
0
70
32
0
VERTEX
8
0
62
255
10
788.7917
20
1027.0738
30
0
70
32
0
VERTEX
8
0
62
255
10
791.76395
20
1031.2079
30
0
70
32
0
VERTEX
8
0
62
255
10
795.13306
20
1035.0256
30
0
70
32
0
VERTEX
8
0
62
255
10
798.86554
20
1038.4888
30
0
70
32
0
VERTEX
8
0
62
255
10
802.9243
20
1041.5632
30
0
70
32
0
VERTEX
8
0
62
255
10
807.269
20
1044.2182
30
0
70
32
0
VERTEX
8
0
62
255
10
811.85647
20
1046.4274
30
0
70
32
0
VERTEX
8
0
62
255
10
816.6411
20
1048.1689
30
0
70
32
0
VERTEX
8
0
62
255
10
821.57536
20
1049.4253
30
0
70
32
0
VERTEX
8
0
62
255
10
826.61019
20
1050.1842
30
0
70
32
0
VERTEX
8
0
62
255
10
831.69556
20
1050.438
30
0
70
32
0
VERTEX
8
0
62
255
10
836.78094
20
1050.1842
30
0
70
32
0
VERTEX
8
0
62
255
10
841.81577
20
1049.4253
30
0
70
32
0
VERTEX
8
0
62
255
10
846.75002
20
1048.1689
30
0
70
32
0
VERTEX
8
0
62
255
10
851.53466
20
1046.4274
30
0
70
32
0
VERTEX
8
0
62
255
10
856.12212
20
1044.2182
30
0
70
32
0
VERTEX
8
0
62
255
10
860.46682
20
1041.5632
30
0
70
32
0
VERTEX
8
0
62
255
10
864.52559
20
1038.4888
30
0
70
32
0
VERTEX
8
0
62
255
10
868.25807
20
1035.0256
30
0
70
32
0
VERTEX
8
0
62
255
10
871.62718
20
1031.2079
30
0
70
32
0
VERTEX
8
0
62
255
10
874.59942
20
1027.0738
30
0
70
32
0
VERTEX
8
0
62
255
10
877.14528
20
1022.6642
30
0
70
32
0
VERTEX
8
0
62
255
10
879.23943
20
1018.0231
30
0
70
32
0
VERTEX
8
0
62
255
10
880.86107
20
1013.1966
30
0
70
32
0
VERTEX
8
0
62
255
10
881.99408
20
1008.2325
30
0
70
32
0
VERTEX
8
0
62
255
10
882.6272
20
1003.1803
30
0
70
32
0
VERTEX
8
0
62
255
10
882.75414
20
998.09021
30
0
70
32
0
VERTEX
8
0
62
255
10
882.37363
20
993.01275
30
0
70
32
0
VERTEX
8
0
62
255
10
881.48947
20
987.9984
30
0
70
32
0
VERTEX
8
0
62
255
10
880.11043
20
983.097
30
0
70
32
0
VERTEX
8
0
62
255
10
878.25022
20
978.35727
30
0
70
32
0
VERTEX
8
0
62
255
10
875.92733
20
973.82631
30
0
70
32
0
VERTEX
8
0
62
255
10
873.16485
20
969.54915
30
0
70
32
0
VERTEX
8
0
62
255
10
869.99023
20
965.56829
30
0
70
32
0
VERTEX
8
0
62
255
10
866.43501
20
961.92331
30
0
70
32
0
VERTEX
8
0
62
255
10
862.53454
20
958.65043
30
0
70
32
0
VERTEX
8
0
62
255
10
858.32758
20
955.78217
30
0
70
32
0
VERTEX
8
0
62
255
10
853.85594
20
953.34704
30
0
70
32
0
VERTEX
8
0
62
255
10
849.16405
20
951.36925
30
0
70
32
0
VERTEX
8
0
62
255
10
844.8164
20
950.02817
30
0
70
32
0
VERTEX
8
0
62
255
10
850.28943
20
913.55338
30
0
70
32
0
VERTEX
8
0
62
255
10
850.82006
20
913.58611
30
0
70
32
0
VERTEX
8
0
62
255
10
855.94169
20
913.27022
30
0
70
32
0
VERTEX
8
0
62
255
10
860.98567
20
912.32734
30
0
70
32
0
VERTEX
8
0
62
255
10
865.87555
20
910.77175
30
0
70
32
0
VERTEX
8
0
62
255
10
870.53721
20
908.62705
30
0
70
32
0
VERTEX
8
0
62
255
10
874.89997
20
905.92574
30
0
70
32
0
VERTEX
8
0
62
255
10
878.89771
20
902.70878
30
0
70
32
0
VERTEX
8
0
62
255
10
882.46982
20
899.02492
30
0
70
32
0
VERTEX
8
0
62
255
10
885.56215
20
894.93001
30
0
70
32
0
VERTEX
8
0
62
255
10
888.12783
20
890.48612
30
0
70
32
0
VERTEX
8
0
62
255
10
890.12795
20
885.76063
30
0
70
32
0
VERTEX
8
0
62
255
10
891.53222
20
880.82517
30
0
70
32
0
VERTEX
8
0
62
255
10
892.31932
20
875.75454
30
0
70
32
0
VERTEX
8
0
62
255
10
892.47734
20
870.62562
30
0
70
32
0
VERTEX
8
0
62
255
10
892.00388
20
865.51616
30
0
70
32
0
VERTEX
8
0
62
255
10
890.90612
20
860.5036
30
0
70
32
0
VERTEX
8
0
62
255
10
889.20069
20
855.66394
30
0
70
32
0
VERTEX
8
0
62
255
10
886.91344
20
851.07054
30
0
70
32
0
VERTEX
8
0
62
255
10
884.07906
20
846.79304
30
0
70
32
0
VERTEX
8
0
62
255
10
880.74051
20
842.89626
30
0
70
32
0
VERTEX
8
0
62
255
10
876.9484
20
839.43929
30
0
70
32
0
VERTEX
8
0
62
255
10
872.7602
20
836.47453
30
0
70
32
0
VERTEX
8
0
62
255
10
868.23942
20
834.04692
30
0
70
32
0
VERTEX
8
0
62
255
10
863.45457
20
832.19326
30
0
70
32
0
VERTEX
8
0
62
255
10
858.4782
20
830.94165
30
0
70
32
0
VERTEX
8
0
62
255
10
853.38574
20
830.31107
30
0
70
32
0
VERTEX
8
0
62
255
10
848.25439
20
830.31107
30
0
70
32
0
VERTEX
8
0
62
255
10
843.16193
20
830.94165
30
0
70
32
0
VERTEX
8
0
62
255
10
838.18556
20
832.19326
30
0
70
32
0
VERTEX
8
0
62
255
10
833.40071
20
834.04692
30
0
70
32
0
VERTEX
8
0
62
255
10
828.87993
20
836.47453
30
0
70
32
0
VERTEX
8
0
62
255
10
824.69173
20
839.43929
30
0
70
32
0
VERTEX
8
0
62
255
10
820.89962
20
842.89626
30
0
70
32
0
VERTEX
8
0
62
255
10
817.56106
20
846.79304
30
0
70
32
0
VERTEX
8
0
62
255
10
817.47697
20
846.91995
30
0
70
32
0
VERTEX
8
0
62
255
10
800.50345
20
836.88162
30
0
70
32
0
VERTEX
8
0
62
255
10
800.60243
20
836.69572
30
0
70
32
0
VERTEX
8
0
62
255
10
802.51667
20
831.98885
30
0
70
32
0
VERTEX
8
0
62
255
10
803.93681
20
827.1101
30
0
70
32
0
VERTEX
8
0
62
255
10
804.84777
20
822.11119
30
0
70
32
0
VERTEX
8
0
62
255
10
805.23992
20
817.04511
30
0
70
32
0
VERTEX
8
0
62
255
10
805.10909
20
811.96556
30
0
70
32
0
VERTEX
8
0
62
255
10
804.45667
20
806.92638
30
0
70
32
0
VERTEX
8
0
62
255
10
803.28957
20
801.98099
30
0
70
32
0
VERTEX
8
0
62
255
10
801.62017
20
797.18182
30
0
70
32
0
VERTEX
8
0
62
255
10
799.46616
20
792.57973
30
0
70
32
0
VERTEX
8
0
62
255
10
796.85037
20
788.22351
30
0
70
32
0
VERTEX
8
0
62
255
10
793.80054
20
784.15934
30
0
70
32
0
VERTEX
8
0
62
255
10
790.349
20
780.4303
30
0
70
32
0
VERTEX
8
0
62
255
10
786.53232
20
777.07591
30
0
70
32
0
VERTEX
8
0
62
255
10
782.39096
20
774.13173
30
0
70
32
0
VERTEX
8
0
62
255
10
778.7796
20
772.08784
30
0
70
32
0
VERTEX
8
0
62
255
10
801.9634
20
716.06914
30
0
70
32
0
VERTEX
8
0
62
255
10
802.53882
20
716.27502
30
0
70
32
0
VERTEX
8
0
62
255
10
807.45069
20
717.50538
30
0
70
32
0
VERTEX
8
0
62
255
10
812.4595
20
718.24837
30
0
70
32
0
VERTEX
8
0
62
255
10
817.51702
20
718.49683
30
0
70
32
0
VERTEX
8
0
62
255
10
822.57454
20
718.24837
30
0
70
32
0
VERTEX
8
0
62
255
10
827.58335
20
717.50538
30
0
70
32
0
VERTEX
8
0
62
255
10
832.49521
20
716.27502
30
0
70
32
0
VERTEX
8
0
62
255
10
837.26283
20
714.56914
30
0
70
32
0
VERTEX
8
0
62
255
10
841.84029
20
712.40417
30
0
70
32
0
VERTEX
8
0
62
255
10
846.1835
20
709.80095
30
0
70
32
0
VERTEX
8
0
62
255
10
850.25064
20
706.78455
30
0
70
32
0
VERTEX
8
0
62
255
10
854.00253
20
703.38404
30
0
70
32
0
VERTEX
8
0
62
255
10
857.40305
20
699.63214
30
0
70
32
0
VERTEX
8
0
62
255
10
860.41944
20
695.56501
30
0
70
32
0
VERTEX
8
0
62
255
10
863.02266
20
691.2218
30
0
70
32
0
VERTEX
8
0
62
255
10
865.18764
20
686.64434
30
0
70
32
0
VERTEX
8
0
62
255
10
866.89352
20
681.87672
30
0
70
32
0
VERTEX
8
0
62
255
10
868.12388
20
676.96485
30
0
70
32
0
VERTEX
8
0
62
255
10
868.86686
20
671.95604
30
0
70
32
0
VERTEX
8
0
62
255
10
869.11532
20
666.89852
30
0
70
32
0
VERTEX
8
0
62
255
10
868.86686
20
661.841
30
0
70
32
0
VERTEX
8
0
62
255
10
868.12388
20
656.83219
30
0
70
32
0
VERTEX
8
0
62
255
10
866.89352
20
651.92033
30
0
70
32
0
VERTEX
8
0
62
255
10
865.18764
20
647.15271
30
0
70
32
0
VERTEX
8
0
62
255
10
863.02266
20
642.57525
30
0
70
32
0
VERTEX
8
0
62
255
10
860.41944
20
638.23204
30
0
70
32
0
VERTEX
8
0
62
255
10
857.40305
20
634.1649
30
0
70
32
0
VERTEX
8
0
62
255
10
854.00253
20
630.41301
30
0
70
32
0
VERTEX
8
0
62
255
10
850.25064
20
627.01249
30
0
70
32
0
VERTEX
8
0
62
255
10
846.1835
20
623.9961
30
0
70
32
0
VERTEX
8
0
62
255
10
841.84029
20
621.39288
30
0
70
32
0
VERTEX
8
0
62
255
10
837.26283
20
619.2279
30
0
70
32
0
VERTEX
8
0
62
255
10
832.49521
20
617.52202
30
0
70
32
0
VERTEX
8
0
62
255
10
827.58335
20
616.29166
30
0
70
32
0
VERTEX
8
0
62
255
10
822.57454
20
615.54868
30
0
70
32
0
VERTEX
8
0
62
255
10
817.51702
20
615.30022
30
0
70
32
0
VERTEX
8
0
62
255
10
812.4595
20
615.54868
30
0
70
32
0
VERTEX
8
0
62
255
10
807.45069
20
616.29166
30
0
70
32
0
VERTEX
8
0
62
255
10
802.53882
20
617.52202
30
0
70
32
0
VERTEX
8
0
62
255
10
797.7712
20
619.2279
30
0
70
32
0
VERTEX
8
0
62
255
10
797.15631
20
619.51873
30
0
70
32
0
VERTEX
8
0
62
255
10
782.60878
20
592.12976
30
0
70
32
0
VERTEX
8
0
62
255
10
784.05652
20
591.22738
30
0
70
32
0
VERTEX
8
0
62
255
10
788.04144
20
588.14282
30
0
70
32
0
VERTEX
8
0
62
255
10
791.69385
20
584.67094
30
0
70
32
0
VERTEX
8
0
62
255
10
794.97629
20
580.84737
30
0
70
32
0
VERTEX
8
0
62
255
10
797.85505
20
576.71133
30
0
70
32
0
VERTEX
8
0
62
255
10
800.30062
20
572.30527
30
0
70
32
0
VERTEX
8
0
62
255
10
802.28788
20
567.67441
30
0
70
32
0
VERTEX
8
0
62
255
10
803.79644
20
562.86625
30
0
70
32
0
VERTEX
8
0
62
255
10
804.81084
20
557.93015
30
0
70
32
0
VERTEX
8
0
62
255
10
805.32065
20
552.91675
30
0
70
32
0
VERTEX
8
0
62
255
10
805.32065
20
547.87749
30
0
70
32
0
VERTEX
8
0
62
255
10
804.81084
20
542.86409
30
0
70
32
0
VERTEX
8
0
62
255
10
803.79644
20
537.92799
30
0
70
32
0
VERTEX
8
0
62
255
10
802.28788
20
533.11984
30
0
70
32
0
VERTEX
8
0
62
255
10
800.30062
20
528.48897
30
0
70
32
0
VERTEX
8
0
62
255
10
797.85505
20
524.08291
30
0
70
32
0
VERTEX
8
0
62
255
10
794.97629
20
519.94688
30
0
70
32
0
VERTEX
8
0
62
255
10
791.69385
20
516.1233
30
0
70
32
0
VERTEX
8
0
62
255
10
788.04144
20
512.65142
30
0
70
32
0
VERTEX
8
0
62
255
10
784.05652
20
509.56686
30
0
70
32
0
VERTEX
8
0
62
255
10
779.77998
20
506.90127
30
0
70
32
0
VERTEX
8
0
62
255
10
775.25571
20
504.68201
30
0
70
32
0
VERTEX
8
0
62
255
10
770.53014
20
502.93185
30
0
70
32
0
VERTEX
8
0
62
255
10
765.65175
20
501.66875
30
0
70
32
0
VERTEX
8
0
62
255
10
760.6706
20
500.90567
30
0
70
32
0
VERTEX
8
0
62
255
10
755.63781
20
500.65043
30
0
70
32
0
VERTEX
8
0
62
255
10
750.60503
20
500.90567
30
0
70
32
0
VERTEX
8
0
62
255
10
745.62388
20
501.66875
30
0
70
32
0
VERTEX
8
0
62
255
10
740.74549
20
502.93185
30
0
70
32
0
VERTEX
8
0
62
255
10
736.01992
20
504.68201
30
0
70
32
0
VERTEX
8
0
62
255
10
733.16667
20
506.0816
30
0
70
32
0
VERTEX
8
0
62
255
10
706.41876
20
464.94653
30
0
70
32
0
VERTEX
8
0
62
255
10
706.76097
20
464.69274
30
0
70
32
0
VERTEX
8
0
62
255
10
710.54276
20
461.26511
30
0
70
32
0
VERTEX
8
0
62
255
10
713.97039
20
457.48331
30
0
70
32
0
VERTEX
8
0
62
255
10
717.01082
20
453.38376
30
0
70
32
0
VERTEX
8
0
62
255
10
719.63479
20
449.00593
30
0
70
32
0
VERTEX
8
0
62
255
10
721.81703
20
444.39199
30
0
70
32
0
VERTEX
8
0
62
255
10
723.5365
20
439.58637
30
0
70
32
0
VERTEX
8
0
62
255
10
724.77667
20
434.63535
30
0
70
32
0
VERTEX
8
0
62
255
10
725.52558
20
429.58661
30
0
70
32
0
VERTEX
8
0
62
255
10
725.77602
20
424.48878
30
0
70
32
0
VERTEX
8
0
62
255
10
725.52558
20
419.39095
30
0
70
32
0
VERTEX
8
0
62
255
10
724.77667
20
414.34221
30
0
70
32
0
VERTEX
8
0
62
255
10
723.5365
20
409.39119
30
0
70
32
0
VERTEX
8
0
62
255
10
721.81703
20
404.58557
30
0
70
32
0
VERTEX
8
0
62
255
10
719.63479
20
399.97163
30
0
70
32
0
VERTEX
8
0
62
255
10
717.01082
20
395.5938
30
0
70
32
0
VERTEX
8
0
62
255
10
713.97039
20
391.49425
30
0
70
32
0
VERTEX
8
0
62
255
10
710.54276
20
387.71245
30
0
70
32
0
VERTEX
8
0
62
255
10
706.76097
20
384.28483
30
0
70
32
0
VERTEX
8
0
62
255
10
705.4889
20
383.3414
30
0
70
32
0
VERTEX
8
0
62
255
10
760.08225
20
296.2334
30
0
70
32
0
VERTEX
8
0
62
255
10
762.52976
20
297.43396
30
0
70
32
0
VERTEX
8
0
62
255
10
767.30808
20
299.20366
30
0
70
32
0
VERTEX
8
0
62
255
10
772.24092
20
300.48086
30
0
70
32
0
VERTEX
8
0
62
255
10
777.27767
20
301.25246
30
0
70
32
0
VERTEX
8
0
62
255
10
782.36663
20
301.51054
30
0
70
32
0
VERTEX
8
0
62
255
10
787.45559
20
301.25246
30
0
70
32
0
VERTEX
8
0
62
255
10
792.49233
20
300.48086
30
0
70
32
0
VERTEX
8
0
62
255
10
797.42517
20
299.20366
30
0
70
32
0
VERTEX
8
0
62
255
10
802.20349
20
297.43396
30
0
70
32
0
VERTEX
8
0
62
255
10
806.77826
20
295.18993
30
0
70
32
0
VERTEX
8
0
62
255
10
811.10253
20
292.49459
30
0
70
32
0
VERTEX
8
0
62
255
10
815.13193
20
289.37561
30
0
70
32
0
VERTEX
8
0
62
255
10
818.82511
20
285.86497
30
0
70
32
0
VERTEX
8
0
62
255
10
822.14418
20
281.99872
30
0
70
32
0
VERTEX
8
0
62
255
10
824.32517
20
278.86521
30
0
70
32
0
VERTEX
8
0
62
255
10
909.56657
20
322.62052
30
0
70
32
0
VERTEX
8
0
62
255
10
908.68289
20
325.12821
30
0
70
32
0
VERTEX
8
0
62
255
10
907.59602
20
330.09104
30
0
70
32
0
VERTEX
8
0
62
255
10
907.12725
20
335.14982
30
0
70
32
0
VERTEX
8
0
62
255
10
907.28371
20
340.22785
30
0
70
32
0
VERTEX
8
0
62
255
10
908.063
20
345.24818
30
0
70
32
0
VERTEX
8
0
62
255
10
909.45334
20
350.13468
30
0
70
32
0
VERTEX
8
0
62
255
10
911.43362
20
354.81329
30
0
70
32
0
VERTEX
8
0
62
255
10
913.97385
20
359.21309
30
0
70
32
0
VERTEX
8
0
62
255
10
917.0355
20
363.26738
30
0
70
32
0
VERTEX
8
0
62
255
10
920.57217
20
366.91469
30
0
70
32
0
VERTEX
8
0
62
255
10
924.53025
20
370.09974
30
0
70
32
0
VERTEX
8
0
62
255
10
928.84973
20
372.77425
30
0
70
32
0
VERTEX
8
0
62
255
10
933.46514
20
374.89768
30
0
70
32
0
VERTEX
8
0
62
255
10
938.30652
20
376.43783
30
0
70
32
0
VERTEX
8
0
62
255
10
943.30046
20
377.37136
30
0
70
32
0
VERTEX
8
0
62
255
10
948.37127
20
377.68412
30
0
70
32
0
VERTEX
8
0
62
255
10
953.44208
20
377.37136
30
0
70
32
0
VERTEX
8
0
62
255
10
958.43603
20
376.43783
30
0
70
32
0
VERTEX
8
0
62
255
10
963.2774
20
374.89768
30
0
70
32
0
VERTEX
8
0
62
255
10
967.89281
20
372.77425
30
0
70
32
0
VERTEX
8
0
62
255
10
972.21229
20
370.09974
30
0
70
32
0
VERTEX
8
0
62
255
10
976.17037
20
366.91469
30
0
70
32
0
VERTEX
8
0
62
255
10
979.70704
20
363.26738
30
0
70
32
0
VERTEX
8
0
62
255
10
982.7687
20
359.21309
30
0
70
32
0
VERTEX
8
0
62
255
10
985.30892
20
354.81329
30
0
70
32
0
VERTEX
8
0
62
255
10
987.28921
20
350.13468
30
0
70
32
0
VERTEX
8
0
62
255
10
988.67954
20
345.24818
30
0
70
32
0
VERTEX
8
0
62
255
10
989.45883
20
340.22785
30
0
70
32
0
VERTEX
8
0
62
255
10
989.61529
20
335.14982
30
0
70
32
0
VERTEX
8
0
62
255
10
989.14652
20
330.09104
30
0
70
32
0
VERTEX
8
0
62
255
10
988.05965
20
325.12821
30
0
70
32
0
VERTEX
8
0
62
255
10
986.37114
20
320.33657
30
0
70
32
0
VERTEX
8
0
62
255
10
984.10659
20
315.78874
30
0
70
32
0
VERTEX
8
0
62
255
10
981.30032
20
311.55366
30
0
70
32
0
VERTEX
8
0
62
255
10
977.99489
20
307.69555
30
0
70
32
0
VERTEX
8
0
62
255
10
974.2404
20
304.27287
30
0
70
32
0
VERTEX
8
0
62
255
10
970.09375
20
301.33752
30
0
70
32
0
VERTEX
8
0
62
255
10
965.61781
20
298.93399
30
0
70
32
0
VERTEX
8
0
62
255
10
960.88044
20
297.09873
30
0
70
32
0
VERTEX
8
0
62
255
10
955.95343
20
295.85953
30
0
70
32
0
VERTEX
8
0
62
255
10
950.91149
20
295.23521
30
0
70
32
0
VERTEX
8
0
62
255
10
945.83105
20
295.23521
30
0
70
32
0
VERTEX
8
0
62
255
10
940.78911
20
295.85953
30
0
70
32
0
VERTEX
8
0
62
255
10
935.8621
20
297.09873
30
0
70
32
0
VERTEX
8
0
62
255
10
931.12473
20
298.93399
30
0
70
32
0
VERTEX
8
0
62
255
10
926.64879
20
301.33752
30
0
70
32
0
VERTEX
8
0
62
255
10
922.50215
20
304.27287
30
0
70
32
0
VERTEX
8
0
62
255
10
918.74765
20
307.69555
30
0
70
32
0
VERTEX
8
0
62
255
10
915.44222
20
311.55366
30
0
70
32
0
VERTEX
8
0
62
255
10
914.52987
20
312.93054
30
0
70
32
0
VERTEX
8
0
62
255
10
829.31784
20
269.19031
30
0
70
32
0
VERTEX
8
0
62
255
10
829.53738
20
268.67873
30
0
70
32
0
VERTEX
8
0
62
255
10
831.06278
20
263.81691
30
0
70
32
0
VERTEX
8
0
62
255
10
832.0885
20
258.82571
30
0
70
32
0
VERTEX
8
0
62
255
10
832.604
20
253.75635
30
0
70
32
0
VERTEX
8
0
62
255
10
832.604
20
248.66085
30
0
70
32
0
VERTEX
8
0
62
255
10
832.0885
20
243.59149
30
0
70
32
0
VERTEX
8
0
62
255
10
831.06278
20
238.60029
30
0
70
32
0
VERTEX
8
0
62
255
10
829.53738
20
233.73847
30
0
70
32
0
VERTEX
8
0
62
255
10
827.52794
20
229.05592
30
0
70
32
0
VERTEX
8
0
62
255
10
825.05508
20
224.60069
30
0
70
32
0
VERTEX
8
0
62
255
10
822.14418
20
220.41848
30
0
70
32
0
VERTEX
8
0
62
255
10
818.82511
20
216.55223
30
0
70
32
0
VERTEX
8
0
62
255
10
815.13193
20
213.0416
30
0
70
32
0
VERTEX
8
0
62
255
10
811.10253
20
209.92261
30
0
70
32
0
VERTEX
8
0
62
255
10
806.77826
20
207.22727
30
0
70
32
0
VERTEX
8
0
62
255
10
802.20349
20
204.98324
30
0
70
32
0
VERTEX
8
0
62
255
10
797.42517
20
203.21355
30
0
70
32
0
VERTEX
8
0
62
255
10
792.49233
20
201.93635
30
0
70
32
0
VERTEX
8
0
62
255
10
787.45559
20
201.16475
30
0
70
32
0
VERTEX
8
0
62
255
10
782.36663
20
200.90666
30
0
70
32
0
VERTEX
8
0
62
255
10
777.27767
20
201.16475
30
0
70
32
0
VERTEX
8
0
62
255
10
772.24092
20
201.93635
30
0
70
32
0
VERTEX
8
0
62
255
10
767.30808
20
203.21355
30
0
70
32
0
VERTEX
8
0
62
255
10
762.52976
20
204.98324
30
0
70
32
0
VERTEX
8
0
62
255
10
757.955
20
207.22727
30
0
70
32
0
VERTEX
8
0
62
255
10
756.1411
20
208.35788
30
0
70
32
0
VERTEX
8
0
62
255
10
726.20782
20
168.00295
30
0
70
32
0
VERTEX
8
0
62
255
10
728.18523
20
166.25112
30
0
70
32
0
VERTEX
8
0
62
255
10
731.65202
20
162.52342
30
0
70
32
0
VERTEX
8
0
62
255
10
734.74286
20
158.47852
30
0
70
32
0
VERTEX
8
0
62
255
10
737.42887
20
154.1542
30
0
70
32
0
VERTEX
8
0
62
255
10
739.68499
20
149.59083
30
0
70
32
0
VERTEX
8
0
62
255
10
741.49015
20
144.83101
30
0
70
32
0
VERTEX
8
0
62
255
10
742.8275
20
139.9192
30
0
70
32
0
VERTEX
8
0
62
255
10
743.68454
20
134.90124
30
0
70
32
0
VERTEX
8
0
62
255
10
744.05328
20
129.82399
30
0
70
32
0
VERTEX
8
0
62
255
10
743.93027
20
124.73485
30
0
70
32
0
VERTEX
8
0
62
255
10
743.31666
20
119.68135
30
0
70
32
0
VERTEX
8
0
62
255
10
742.21819
20
114.71065
30
0
70
32
0
VERTEX
8
0
62
255
10
740.6451
20
109.86918
30
0
70
32
0
VERTEX
8
0
62
255
10
738.61208
20
105.20214
30
0
70
32
0
VERTEX
8
0
62
255
10
736.13813
20
100.7531
30
0
70
32
0
VERTEX
8
0
62
255
10
733.24632
20
96.563599
30
0
70
32
0
VERTEX
8
0
62
255
10
729.96367
20
92.672756
30
0
70
32
0
VERTEX
8
0
62
255
10
726.32083
20
89.116898
30
0
70
32
0
VERTEX
8
0
62
255
10
722.3518
20
85.929226
30
0
70
32
0
VERTEX
8
0
62
255
10
718.09365
20
83.139501
30
0
70
32
0
VERTEX
8
0
62
255
10
713.58613
20
80.773771
30
0
70
32
0
VERTEX
8
0
62
255
10
708.87132
20
78.854124
30
0
70
32
0
VERTEX
8
0
62
255
10
703.99325
20
77.398482
30
0
70
32
0
VERTEX
8
0
62
255
10
698.99747
20
76.420438
30
0
70
32
0
VERTEX
8
0
62
255
10
693.93061
20
75.929122
30
0
70
32
0
VERTEX
8
0
62
255
10
688.83999
20
75.929122
30
0
70
32
0
VERTEX
8
0
62
255
10
683.77313
20
76.420438
30
0
70
32
0
VERTEX
8
0
62
255
10
678.77735
20
77.398482
30
0
70
32
0
VERTEX
8
0
62
255
10
673.89928
20
78.854124
30
0
70
32
0
VERTEX
8
0
62
255
10
669.18447
20
80.773771
30
0
70
32
0
VERTEX
8
0
62
255
10
664.67695
20
83.139501
30
0
70
32
0
VERTEX
8
0
62
255
10
660.4188
20
85.929226
30
0
70
32
0
VERTEX
8
0
62
255
10
656.44977
20
89.116898
30
0
70
32
0
VERTEX
8
0
62
255
10
652.80692
20
92.672756
30
0
70
32
0
VERTEX
8
0
62
255
10
649.52428
20
96.563599
30
0
70
32
0
VERTEX
8
0
62
255
10
646.63247
20
100.7531
30
0
70
32
0
VERTEX
8
0
62
255
10
645.75424
20
102.33248
30
0
70
32
0
VERTEX
8
0
62
255
10
585.78544
20
75.532438
30
0
70
32
0
VERTEX
8
0
62
255
10
586.31951
20
73.947369
30
0
70
32
0
VERTEX
8
0
62
255
10
587.41135
20
68.9871
30
0
70
32
0
VERTEX
8
0
62
255
10
587.96049
20
63.937861
30
0
70
32
0
VERTEX
8
0
62
255
10
587.96049
20
58.858848
30
0
70
32
0
VERTEX
8
0
62
255
10
587.41135
20
53.809609
30
0
70
32
0
VERTEX
8
0
62
255
10
586.31951
20
48.84934
30
0
70
32
0
VERTEX
8
0
62
255
10
584.69778
20
44.036197
30
0
70
32
0
VERTEX
8
0
62
255
10
582.56516
20
39.42661
30
0
70
32
0
VERTEX
8
0
62
255
10
579.94665
20
35.074622
30
0
70
32
0
VERTEX
8
0
62
255
10
576.87296
20
31.031255
30
0
70
32
0
VERTEX
8
0
62
255
10
573.38013
20
27.343914
30
0
70
32
0
VERTEX
8
0
62
255
10
569.5091
20
24.055831
30
0
70
32
0
VERTEX
8
0
62
255
10
565.30526
20
21.205555
30
0
70
32
0
VERTEX
8
0
62
255
10
560.81789
20
18.826502
30
0
70
32
0
VERTEX
8
0
62
255
10
556.0996
20
16.946566
30
0
70
32
0
VERTEX
8
0
62
255
10
551.20572
20
15.587786
30
0
70
32
0
VERTEX
8
0
62
255
10
546.19361
20
14.766093
30
0
70
32
0
VERTEX
8
0
62
255
10
541.12205
20
14.491121
30
0
70
32
0
VERTEX
8
0
62
255
10
536.05049
20
14.766093
30
0
70
32
0
VERTEX
8
0
62
255
10
531.03838
20
15.587786
30
0
70
32
0
VERTEX
8
0
62
255
10
526.1445
20
16.946566
30
0
70
32
0
VERTEX
8
0
62
255
10
521.42621
20
18.826502
30
0
70
32
0
VERTEX
8
0
62
255
10
516.93884
20
21.205555
30
0
70
32
0
VERTEX
8
0
62
255
10
512.735
20
24.055831
30
0
70
32
0
VERTEX
8
0
62
255
10
508.86397
20
27.343914
30
0
70
32
0
VERTEX
8
0
62
255
10
505.37114
20
31.031255
30
0
70
32
0
VERTEX
8
0
62
255
10
502.29745
20
35.074622
30
0
70
32
0
VERTEX
8
0
62
255
10
499.67894
20
39.42661
30
0
70
32
0
VERTEX
8
0
62
255
10
497.54632
20
44.036197
30
0
70
32
0
VERTEX
8
0
62
255
10
495.92459
20
48.84934
30
0
70
32
0
VERTEX
8
0
62
255
10
494.83275
20
53.809609
30
0
70
32
0
VERTEX
8
0
62
255
10
494.28361
20
58.858848
30
0
70
32
0
VERTEX
8
0
62
255
10
494.28361
20
63.937861
30
0
70
32
0
VERTEX
8
0
62
255
10
494.83275
20
68.9871
30
0
70
32
0
VERTEX
8
0
62
255
10
495.92459
20
73.947369
30
0
70
32
0
VERTEX
8
0
62
255
10
497.54632
20
78.760511
30
0
70
32
0
VERTEX
8
0
62
255
10
499.67894
20
83.370099
30
0
70
32
0
VERTEX
8
0
62
255
10
502.29745
20
87.722087
30
0
70
32
0
VERTEX
8
0
62
255
10
505.37114
20
91.765454
30
0
70
32
0
VERTEX
8
0
62
255
10
508.86397
20
95.452795
30
0
70
32
0
VERTEX
8
0
62
255
10
509.13785
20
95.68543
30
0
70
32
0
VERTEX
8
0
62
255
10
465.18987
20
154.42087
30
0
70
32
0
VERTEX
8
0
62
255
10
464.63319
20
154.05936
30
0
70
32
0
VERTEX
8
0
62
255
10
460.12318
20
151.76139
30
0
70
32
0
VERTEX
8
0
62
255
10
455.39768
20
149.94744
30
0
70
32
0
VERTEX
8
0
62
255
10
450.50845
20
148.63738
30
0
70
32
0
VERTEX
8
0
62
255
10
445.50907
20
147.84556
30
0
70
32
0
VERTEX
8
0
62
255
10
440.45431
20
147.58065
30
0
70
32
0
VERTEX
8
0
62
255
10
435.39955
20
147.84556
30
0
70
32
0
VERTEX
8
0
62
255
10
430.40017
20
148.63738
30
0
70
32
0
VERTEX
8
0
62
255
10
425.51095
20
149.94744
30
0
70
32
0
VERTEX
8
0
62
255
10
420.78545
20
151.76139
30
0
70
32
0
VERTEX
8
0
62
255
10
416.27544
20
154.05936
30
0
70
32
0
VERTEX
8
0
62
255
10
412.03034
20
156.81615
30
0
70
32
0
VERTEX
8
0
62
255
10
408.09667
20
160.00158
30
0
70
32
0
VERTEX
8
0
62
255
10
404.5175
20
163.58074
30
0
70
32
0
VERTEX
8
0
62
255
10
401.33207
20
167.51442
30
0
70
32
0
VERTEX
8
0
62
255
10
398.57528
20
171.75952
30
0
70
32
0
VERTEX
8
0
62
255
10
396.27731
20
176.26953
30
0
70
32
0
VERTEX
8
0
62
255
10
394.46336
20
180.99503
30
0
70
32
0
VERTEX
8
0
62
255
10
393.67018
20
183.95524
30
0
70
32
0
VERTEX
8
0
62
255
10
357.38204
20
178.37633
30
0
70
32
0
VERTEX
8
0
62
255
10
357.49838
20
176.87335
30
0
70
32
0
VERTEX
8
0
62
255
10
357.3676
20
171.796
30
0
70
32
0
VERTEX
8
0
62
255
10
356.71546
20
166.75901
30
0
70
32
0
VERTEX
8
0
62
255
10
355.54887
20
161.81577
30
0
70
32
0
VERTEX
8
0
62
255
10
353.8802
20
157.01868
30
0
70
32
0
VERTEX
8
0
62
255
10
351.72712
20
152.4186
30
0
70
32
0
VERTEX
8
0
62
255
10
349.11247
20
148.06427
30
0
70
32
0
VERTEX
8
0
62
255
10
346.06397
20
144.00186
30
0
70
32
0
VERTEX
8
0
62
255
10
342.61392
20
140.27443
30
0
70
32
0
VERTEX
8
0
62
255
10
338.7989
20
136.9215
30
0
70
32
0
VERTEX
8
0
62
255
10
334.65934
20
133.9786
30
0
70
32
0
VERTEX
8
0
62
255
10
330.23914
20
131.47694
30
0
70
32
0
VERTEX
8
0
62
255
10
325.58514
20
129.44302
30
0
70
32
0
VERTEX
8
0
62
255
10
320.74667
20
127.89841
30
0
70
32
0
VERTEX
8
0
62
255
10
315.77503
20
126.85949
30
0
70
32
0
VERTEX
8
0
62
255
10
310.72292
20
126.33725
30
0
70
32
0
VERTEX
8
0
62
255
10
305.64389
20
126.33725
30
0
70
32
0
VERTEX
8
0
62
255
10
300.59178
20
126.85949
30
0
70
32
0
VERTEX
8
0
62
255
10
295.62014
20
127.89841
30
0
70
32
0
VERTEX
8
0
62
255
10
290.78168
20
129.44302
30
0
70
32
0
VERTEX
8
0
62
255
10
286.12768
20
131.47694
30
0
70
32
0
VERTEX
8
0
62
255
10
281.70747
20
133.9786
30
0
70
32
0
VERTEX
8
0
62
255
10
277.56792
20
136.9215
30
0
70
32
0
VERTEX
8
0
62
255
10
273.7529
20
140.27443
30
0
70
32
0
VERTEX
8
0
62
255
10
270.30285
20
144.00186
30
0
70
32
0
VERTEX
8
0
62
255
10
267.25434
20
148.06427
30
0
70
32
0
VERTEX
8
0
62
255
10
264.63969
20
152.4186
30
0
70
32
0
VERTEX
8
0
62
255
10
262.48662
20
157.01868
30
0
70
32
0
VERTEX
8
0
62
255
10
261.72345
20
159.21262
30
0
70
32
0
VERTEX
8
0
62
255
10
195.38613
20
143.28815
30
0
70
32
0
VERTEX
8
0
62
255
10
195.67873
20
141.31558
30
0
70
32
0
VERTEX
8
0
62
255
10
195.92758
20
136.25018
30
0
70
32
0
VERTEX
8
0
62
255
10
195.67873
20
131.18477
30
0
70
32
0
VERTEX
8
0
62
255
10
194.93459
20
126.16815
30
0
70
32
0
VERTEX
8
0
62
255
10
193.70231
20
121.24862
30
0
70
32
0
VERTEX
8
0
62
255
10
191.99377
20
116.47357
30
0
70
32
0
VERTEX
8
0
62
255
10
189.82542
20
111.88897
30
0
70
32
0
VERTEX
8
0
62
255
10
187.21814
20
107.53899
30
0
70
32
0
VERTEX
8
0
62
255
10
184.19704
20
103.46551
30
0
70
32
0
VERTEX
8
0
62
255
10
180.79122
20
99.707768
30
0
70
32
0
VERTEX
8
0
62
255
10
177.03347
20
96.301947
30
0
70
32
0
VERTEX
8
0
62
255
10
172.96
20
93.280849
30
0
70
32
0
VERTEX
8
0
62
255
10
168.61001
20
90.67357
30
0
70
32
0
VERTEX
8
0
62
255
10
164.02542
20
88.505218
30
0
70
32
0
VERTEX
8
0
62
255
10
159.25036
20
86.796676
30
0
70
32
0
VERTEX
8
0
62
255
10
154.33084
20
85.564399
30
0
70
32
0
VERTEX
8
0
62
255
10
149.31421
20
84.820253
30
0
70
32
0
VERTEX
8
0
62
255
10
144.24881
20
84.571406
30
0
70
32
0
VERTEX
8
0
62
255
10
139.1834
20
84.820253
30
0
70
32
0
VERTEX
8
0
62
255
10
134.16678
20
85.564399
30
0
70
32
0
VERTEX
8
0
62
255
10
129.24725
20
86.796676
30
0
70
32
0
VERTEX
8
0
62
255
10
124.4722
20
88.505218
30
0
70
32
0
VERTEX
8
0
62
255
10
119.8876
20
90.67357
30
0
70
32
0
VERTEX
8
0
62
255
10
115.53762
20
93.280849
30
0
70
32
0
VERTEX
8
0
62
255
10
111.46414
20
96.301947
30
0
70
32
0
VERTEX
8
0
62
255
10
107.7064
20
99.707768
30
0
70
32
0
VERTEX
8
0
62
255
10
104.30058
20
103.46551
30
0
70
32
0
VERTEX
8
0
62
255
10
101.27948
20
107.53899
30
0
70
32
0
VERTEX
8
0
62
255
10
98.672199
20
111.88897
30
0
70
32
0
VERTEX
8
0
62
255
10
96.503847
20
116.47357
30
0
70
32
0
VERTEX
8
0
62
255
10
94.795305
20
121.24862
30
0
70
32
0
VERTEX
8
0
62
255
10
93.563028
20
126.16815
30
0
70
32
0
VERTEX
8
0
62
255
10
92.818882
20
131.18477
30
0
70
32
0
VERTEX
8
0
62
255
10
92.570034
20
136.25018
30
0
70
32
0
VERTEX
8
0
62
255
10
92.818882
20
141.31558
30
0
70
32
0
VERTEX
8
0
62
255
10
93.563028
20
146.33221
30
0
70
32
0
VERTEX
8
0
62
255
10
94.795305
20
151.25174
30
0
70
32
0
VERTEX
8
0
62
255
10
96.503847
20
156.02679
30
0
70
32
0
VERTEX
8
0
62
255
10
98.672199
20
160.61138
30
0
70
32
0
VERTEX
8
0
62
255
10
101.27948
20
164.96137
30
0
70
32
0
VERTEX
8
0
62
255
10
104.30058
20
169.03485
30
0
70
32
0
VERTEX
8
0
62
255
10
107.7064
20
172.79259
30
0
70
32
0
VERTEX
8
0
62
255
10
111.46414
20
176.19841
30
0
70
32
0
VERTEX
8
0
62
255
10
115.53762
20
179.21951
30
0
70
32
0
VERTEX
8
0
62
255
10
119.8876
20
181.82679
30
0
70
32
0
VERTEX
8
0
62
255
10
124.4722
20
183.99514
30
0
70
32
0
VERTEX
8
0
62
255
10
129.24725
20
185.70368
30
0
70
32
0
VERTEX
8
0
62
255
10
134.16678
20
186.93596
30
0
70
32
0
VERTEX
8
0
62
255
10
139.1834
20
187.68011
30
0
70
32
0
VERTEX
8
0
62
255
10
144.24881
20
187.92895
30
0
70
32
0
VERTEX
8
0
62
255
10
148.50465
20
187.71988
30
0
70
32
0
VERTEX
8
0
62
255
10
153.72236
20
213.98742
30
0
70
32
0
VERTEX
8
0
62
255
10
149.13238
20
215.74935
30
0
70
32
0
VERTEX
8
0
62
255
10
144.61647
20
218.05032
30
0
70
32
0
VERTEX
8
0
62
255
10
140.36581
20
220.81072
30
0
70
32
0
VERTEX
8
0
62
255
10
136.42699
20
224.00032
30
0
70
32
0
VERTEX
8
0
62
255
10
132.84314
20
227.58417
30
0
70
32
0
VERTEX
8
0
62
255
10
129.65354
20
231.523
30
0
70
32
0
VERTEX
8
0
62
255
10
126.89313
20
235.77365
30
0
70
32
0
VERTEX
8
0
62
255
10
124.59216
20
240.28956
30
0
70
32
0
VERTEX
8
0
62
255
10
122.77584
20
245.02125
30
0
70
32
0
VERTEX
8
0
62
255
10
121.46406
20
249.91687
30
0
70
32
0
VERTEX
8
0
62
255
10
120.6712
20
254.92279
30
0
70
32
0
VERTEX
8
0
62
255
10
120.40594
20
259.98417
30
0
70
32
0
VERTEX
8
0
62
255
10
120.6712
20
265.04555
30
0
70
32
0
VERTEX
8
0
62
255
10
121.46406
20
270.05147
30
0
70
32
0
VERTEX
8
0
62
255
10
122.77584
20
274.9471
30
0
70
32
0
VERTEX
8
0
62
255
10
124.59216
20
279.67879
30
0
70
32
0
VERTEX
8
0
62
255
10
126.89313
20
284.1947
30
0
70
32
0
VERTEX
8
0
62
255
10
129.65354
20
288.44535
30
0
70
32
0
VERTEX
8
0
62
255
10
132.84314
20
292.38418
30
0
70
32
0
VERTEX
8
0
62
255
10
136.42699
20
295.96802
30
0
70
32
0
VERTEX
8
0
62
255
10
139.2084
20
298.22037
30
0
70
32
0
VERTEX
8
0
62
255
10
88.358017
20
382.38223
30
0
70
32
0
VERTEX
8
0
62
255
10
87.146332
20
381.78787
30
0
70
32
0
VERTEX
8
0
62
255
10
82.371089
20
380.01931
30
0
70
32
0
VERTEX
8
0
62
255
10
77.441425
20
378.74293
30
0
70
32
0
VERTEX
8
0
62
255
10
72.407924
20
377.97183
30
0
70
32
0
VERTEX
8
0
62
255
10
67.322237
20
377.71391
30
0
70
32
0
VERTEX
8
0
62
255
10
62.23655
20
377.97183
30
0
70
32
0
VERTEX
8
0
62
255
10
57.203049
20
378.74293
30
0
70
32
0
VERTEX
8
0
62
255
10
52.273384
20
380.01931
30
0
70
32
0
VERTEX
8
0
62
255
10
47.498141
20
381.78787
30
0
70
32
0
VERTEX
8
0
62
255
10
42.92632
20
384.03045
30
0
70
32
0
VERTEX
8
0
62
255
10
38.604835
20
386.72406
30
0
70
32
0
VERTEX
8
0
62
255
10
34.578028
20
389.84104
30
0
70
32
0
VERTEX
8
0
62
255
10
30.887222
20
393.34941
30
0
70
32
0
VERTEX
8
0
62
255
10
27.570288
20
397.21318
30
0
70
32
0
VERTEX
8
0
62
255
10
24.661263
20
401.39269
30
0
70
32
0
VERTEX
8
0
62
255
10
22.189997
20
405.84505
30
0
70
32
0
VERTEX
8
0
62
255
10
20.181849
20
410.52459
30
0
70
32
0
VERTEX
8
0
62
255
10
18.657426
20
415.38328
30
0
70
32
0
VERTEX
8
0
62
255
10
17.632369
20
420.37127
30
0
70
32
0
VERTEX
8
0
62
255
10
17.117197
20
425.43736
30
0
70
32
0
VERTEX
8
0
62
255
10
17.117197
20
430.52959
30
0
70
32
0
VERTEX
8
0
62
255
10
17.632369
20
435.59568
30
0
70
32
0
VERTEX
8
0
62
255
10
18.657426
20
440.58367
30
0
70
32
0
VERTEX
8
0
62
255
10
20.181849
20
445.44236
30
0
70
32
0
VERTEX
8
0
62
255
10
22.189997
20
450.12189
30
0
70
32
0
VERTEX
8
0
62
255
10
24.661263
20
454.57426
30
0
70
32
0
VERTEX
8
0
62
255
10
27.570288
20
458.75377
30
0
70
32
0
VERTEX
8
0
62
255
10
30.887222
20
462.61754
30
0
70
32
0
VERTEX
8
0
62
255
10
34.578028
20
466.12591
30
0
70
32
0
VERTEX
8
0
62
255
10
38.604835
20
469.24289
30
0
70
32
0
VERTEX
8
0
62
255
10
42.92632
20
471.93649
30
0
70
32
0
VERTEX
8
0
62
255
10
47.498141
20
474.17908
30
0
70
32
0
VERTEX
8
0
62
255
10
52.273384
20
475.94763
30
0
70
32
0
VERTEX
8
0
62
255
10
57.203049
20
477.22401
30
0
70
32
0
VERTEX
8
0
62
255
10
62.23655
20
477.99512
30
0
70
32
0
VERTEX
8
0
62
255
10
67.322237
20
478.25303
30
0
70
32
0
VERTEX
8
0
62
255
10
72.407924
20
477.99512
30
0
70
32
0
VERTEX
8
0
62
255
10
77.441425
20
477.22401
30
0
70
32
0
VERTEX
8
0
62
255
10
82.371089
20
475.94763
30
0
70
32
0
VERTEX
8
0
62
255
10
87.146332
20
474.17908
30
0
70
32
0
VERTEX
8
0
62
255
10
91.718153
20
471.93649
30
0
70
32
0
VERTEX
8
0
62
255
10
96.039639
20
469.24289
30
0
70
32
0
VERTEX
8
0
62
255
10
100.06644
20
466.12591
30
0
70
32
0
VERTEX
8
0
62
255
10
103.75725
20
462.61754
30
0
70
32
0
VERTEX
8
0
62
255
10
107.07419
20
458.75377
30
0
70
32
0
VERTEX
8
0
62
255
10
109.94927
20
454.62302
30
0
70
32
0
VERTEX
8
0
62
255
10
164.86983
20
481.97509
30
0
70
32
0
VERTEX
8
0
62
255
10
164.64854
20
482.49077
30
0
70
32
0
VERTEX
8
0
62
255
10
163.11969
20
487.36356
30
0
70
32
0
VERTEX
8
0
62
255
10
162.09166
20
492.36602
30
0
70
32
0
VERTEX
8
0
62
255
10
161.57499
20
497.44682
30
0
70
32
0
VERTEX
8
0
62
255
10
161.57499
20
502.55382
30
0
70
32
0
VERTEX
8
0
62
255
10
162.09166
20
507.63463
30
0
70
32
0
VERTEX
8
0
62
255
10
163.11969
20
512.63709
30
0
70
32
0
VERTEX
8
0
62
255
10
164.64854
20
517.50988
30
0
70
32
0
VERTEX
8
0
62
255
10
166.66252
20
522.203
30
0
70
32
0
VERTEX
8
0
62
255
10
169.14095
20
526.66829
30
0
70
32
0
VERTEX
8
0
62
255
10
172.05842
20
530.85993
30
0
70
32
0
VERTEX
8
0
62
255
10
172.9811
20
531.93472
30
0
70
32
0
VERTEX
8
0
62
255
10
152.25856
20
552.6546
30
0
70
32
0
VERTEX
8
0
62
255
10
151.18765
20
551.74496
30
0
70
32
0
VERTEX
8
0
62
255
10
146.97135
20
548.88624
30
0
70
32
0
VERTEX
8
0
62
255
10
142.47069
20
546.50014
30
0
70
32
0
VERTEX
8
0
62
255
10
137.73843
20
544.61464
30
0
70
32
0
VERTEX
8
0
62
255
10
132.83006
20
543.25183
30
0
70
32
0
VERTEX
8
0
62
255
10
127.80311
20
542.42771
30
0
70
32
0
VERTEX
8
0
62
255
10
122.71652
20
542.15192
30
0
70
32
0
VERTEX
8
0
62
255
10
117.62993
20
542.42771
30
0
70
32
0
VERTEX
8
0
62
255
10
112.60299
20
543.25183
30
0
70
32
0
VERTEX
8
0
62
255
10
107.69461
20
544.61464
30
0
70
32
0
VERTEX
8
0
62
255
10
102.96235
20
546.50014
30
0
70
32
0
VERTEX
8
0
62
255
10
98.461688
20
548.88624
30
0
70
32
0
VERTEX
8
0
62
255
10
94.245394
20
551.74496
30
0
70
32
0
VERTEX
8
0
62
255
10
90.362897
20
555.04278
30
0
70
32
0
VERTEX
8
0
62
255
10
86.859718
20
558.74104
30
0
70
32
0
VERTEX
8
0
62
255
10
83.776926
20
562.79639
30
0
70
32
0
VERTEX
8
0
62
255
10
81.150666
20
567.16126
30
0
70
32
0
VERTEX
8
0
62
255
10
79.011727
20
571.7845
30
0
70
32
0
VERTEX
8
0
62
255
10
77.385187
20
576.6119
30
0
70
32
0
VERTEX
8
0
62
255
10
76.290116
20
581.58686
30
0
70
32
0
VERTEX
8
0
62
255
10
75.739351
20
586.65106
30
0
70
32
0
VERTEX
8
0
62
255
10
75.739351
20
591.74511
30
0
70
32
0
VERTEX
8
0
62
255
10
76.290116
20
596.80931
30
0
70
32
0
VERTEX
8
0
62
255
10
77.385187
20
601.78427
30
0
70
32
0
VERTEX
8
0
62
255
10
79.011727
20
606.61167
30
0
70
32
0
VERTEX
8
0
62
255
10
81.150666
20
611.23491
30
0
70
32
0
VERTEX
8
0
62
255
10
83.776926
20
615.59979
30
0
70
32
0
VERTEX
8
0
62
255
10
86.859718
20
619.65513
30
0
70
32
0
VERTEX
8
0
62
255
10
90.362897
20
623.35339
30
0
70
32
0
VERTEX
8
0
62
255
10
94.245394
20
626.65121
30
0
70
32
0
VERTEX
8
0
62
255
10
98.461688
20
629.50993
30
0
70
32
0
VERTEX
8
0
62
255
10
102.96235
20
631.89603
30
0
70
32
0
VERTEX
8
0
62
255
10
107.69461
20
633.78153
30
0
70
32
0
VERTEX
8
0
62
255
10
112.60299
20
635.14434
30
0
70
32
0
VERTEX
8
0
62
255
10
117.62993
20
635.96847
30
0
70
32
0
VERTEX
8
0
62
255
10
122.71652
20
636.24425
30
0
70
32
0
VERTEX
8
0
62
255
10
127.80311
20
635.96847
30
0
70
32
0
SEQEND
8
0
0
POLYLINE
8
0
62
255
66
1
10
0
20
0
30
0
70
8
0
VERTEX
8
0
62
255
10
457.78771
20
817.24727
30
0
70
32
0
VERTEX
8
0
62
255
10
457.23333
20
815.69789
30
0
70
32
0
VERTEX
8
0
62
255
10
455.04727
20
811.07585
30
0
70
32
0
VERTEX
8
0
62
255
10
452.4187
20
806.69034
30
0
70
32
0
VERTEX
8
0
62
255
10
449.37293
20
802.5836
30
0
70
32
0
VERTEX
8
0
62
255
10
445.93929
20
798.79516
30
0
70
32
0
VERTEX
8
0
62
255
10
442.15086
20
795.36153
30
0
70
32
0
VERTEX
8
0
62
255
10
438.04411
20
792.31576
30
0
70
32
0
VERTEX
8
0
62
255
10
433.6586
20
789.68718
30
0
70
32
0
VERTEX
8
0
62
255
10
429.03656
20
787.50112
30
0
70
32
0
VERTEX
8
0
62
255
10
424.22251
20
785.77863
30
0
70
32
0
VERTEX
8
0
62
255
10
423.89977
20
785.69778
30
0
70
32
0
VERTEX
8
0
62
255
10
444.41015
20
678.97348
30
0
70
32
0
VERTEX
8
0
62
255
10
444.80369
20
679.02757
30
0
70
32
0
VERTEX
8
0
62
255
10
449.88054
20
679.25888
30
0
70
32
0
VERTEX
8
0
62
255
10
454.9574
20
679.02757
30
0
70
32
0
VERTEX
8
0
62
255
10
459.99219
20
678.33556
30
0
70
32
0
VERTEX
8
0
62
255
10
464.94319
20
677.18857
30
0
70
32
0
VERTEX
8
0
62
255
10
469.76938
20
675.59612
30
0
70
32
0
VERTEX
8
0
62
255
10
474.43076
20
673.57139
30
0
70
32
0
VERTEX
8
0
62
255
10
475.41906
20
673.03042
30
0
70
32
0
VERTEX
8
0
62
255
10
530.16014
20
760.90857
30
0
70
32
0
VERTEX
8
0
62
255
10
527.98773
20
762.59942
30
0
70
32
0
VERTEX
8
0
62
255
10
524.3624
20
766.1262
30
0
70
32
0
VERTEX
8
0
62
255
10
521.14704
20
770.03039
30
0
70
32
0
VERTEX
8
0
62
255
10
518.3807
20
774.2646
30
0
70
32
0
VERTEX
8
0
62
255
10
516.09694
20
778.77744
30
0
70
32
0
VERTEX
8
0
62
255
10
514.32349
20
783.51411
30
0
70
32
0
VERTEX
8
0
62
255
10
513.08187
20
788.41713
30
0
70
32
0
VERTEX
8
0
62
255
10
512.38717
20
793.42698
30
0
70
32
0
VERTEX
8
0
62
255
10
512.2478
20
798.48285
30
0
70
32
0
VERTEX
8
0
62
255
10
512.63123
20
803.1101
30
0
70
32
0
VERTEX
8
0
62
255
10
457.78771
20
817.24727
30
0
70
32
0
SEQEND
8
0
0
POLYLINE
8
0
62
255
66
1
10
0
20
0
30
0
70
8
0
VERTEX
8
0
62
255
10
487.04855
20
665.08842
30
0
70
32
0
VERTEX
8
0
62
255
10
490.68283
20
661.53595
30
0
70
32
0
VERTEX
8
0
62
255
10
493.979
20
657.66772
30
0
70
32
0
VERTEX
8
0
62
255
10
496.90976
20
653.51578
30
0
70
32
0
VERTEX
8
0
62
255
10
499.45083
20
649.11453
30
0
70
32
0
VERTEX
8
0
62
255
10
501.58113
20
644.50044
30
0
70
32
0
VERTEX
8
0
62
255
10
503.28303
20
639.71176
30
0
70
32
0
VERTEX
8
0
62
255
10
504.54242
20
634.78815
30
0
70
32
0
VERTEX
8
0
62
255
10
505.34887
20
629.77042
30
0
70
32
0
VERTEX
8
0
62
255
10
505.69568
20
624.70014
30
0
70
32
0
VERTEX
8
0
62
255
10
505.58
20
619.61933
30
0
70
32
0
VERTEX
8
0
62
255
10
505.51646
20
619.06357
30
0
70
32
0
VERTEX
8
0
62
255
10
552.89347
20
611.34924
30
0
70
32
0
VERTEX
8
0
62
255
10
553.00375
20
611.85026
30
0
70
32
0
VERTEX
8
0
62
255
10
554.63262
20
616.68456
30
0
70
32
0
VERTEX
8
0
62
255
10
556.77461
20
621.31441
30
0
70
32
0
VERTEX
8
0
62
255
10
559.40463
20
625.68552
30
0
70
32
0
VERTEX
8
0
62
255
10
562.49182
20
629.74666
30
0
70
32
0
VERTEX
8
0
62
255
10
566.00001
20
633.45021
30
0
70
32
0
VERTEX
8
0
62
255
10
569.88805
20
636.75274
30
0
70
32
0
VERTEX
8
0
62
255
10
574.11037
20
639.61555
30
0
70
32
0
VERTEX
8
0
62
255
10
578.61746
20
642.00506
30
0
70
32
0
VERTEX
8
0
62
255
10
583.35649
20
643.89325
30
0
70
32
0
VERTEX
8
0
62
255
10
585.04025
20
644.36075
30
0
70
32
0
VERTEX
8
0
62
255
10
563.2174
20
751.66339
30
0
70
32
0
VERTEX
8
0
62
255
10
560.66591
20
751.38099
30
0
70
32
0
VERTEX
8
0
62
255
10
555.60812
20
751.38099
30
0
70
32
0
VERTEX
8
0
62
255
10
550.58103
20
751.93739
30
0
70
32
0
VERTEX
8
0
62
255
10
545.64566
20
753.04343
30
0
70
32
0
VERTEX
8
0
62
255
10
540.86192
20
754.68569
30
0
70
32
0
VERTEX
8
0
62
255
10
537.8788
20
756.09346
30
0
70
32
0
VERTEX
8
0
62
255
10
483.16037
20
668.25169
30
0
70
32
0
VERTEX
8
0
62
255
10
487.04855
20
665.08842
30
0
70
32
0
SEQEND
8
0
0
POLYLINE
8
0
62
255
66
1
10
0
20
0
30
0
70
8
0
VERTEX
8
0
62
255
10
504.03601
20
609.91782
30
0
70
32
0
VERTEX
8
0
62
255
10
503.96878
20
609.59427
30
0
70
32
0
VERTEX
8
0
62
255
10
502.4866
20
604.73308
30
0
70
32
0
VERTEX
8
0
62
255
10
500.56851
20
600.02682
30
0
70
32
0
VERTEX
8
0
62
255
10
498.2304
20
595.51448
30
0
70
32
0
VERTEX
8
0
62
255
10
495.49165
20
591.23344
30
0
70
32
0
VERTEX
8
0
62
255
10
492.37495
20
587.2192
30
0
70
32
0
VERTEX
8
0
62
255
10
488.90613
20
583.505
30
0
70
32
0
VERTEX
8
0
62
255
10
485.11393
20
580.12162
30
0
70
32
0
VERTEX
8
0
62
255
10
481.02978
20
577.09711
30
0
70
32
0
VERTEX
8
0
62
255
10
476.68752
20
574.45652
30
0
70
32
0
VERTEX
8
0
62
255
10
473.02852
20
572.66503
30
0
70
32
0
VERTEX
8
0
62
255
10
486.99313
20
533.47542
30
0
70
32
0
VERTEX
8
0
62
255
10
490.21377
20
534.25674
30
0
70
32
0
VERTEX
8
0
62
255
10
495.23183
20
534.97823
30
0
70
32
0
VERTEX
8
0
62
255
10
500.29575
20
535.21945
30
0
70
32
0
VERTEX
8
0
62
255
10
505.35966
20
534.97823
30
0
70
32
0
VERTEX
8
0
62
255
10
510.37772
20
534.25674
30
0
70
32
0
VERTEX
8
0
62
255
10
515.30447
20
533.06153
30
0
70
32
0
VERTEX
8
0
62
255
10
520.0953
20
531.4034
30
0
70
32
0
VERTEX
8
0
62
255
10
524.70682
20
529.29739
30
0
70
32
0
VERTEX
8
0
62
255
10
529.09728
20
526.76256
30
0
70
32
0
VERTEX
8
0
62
255
10
533.2269
20
523.82187
30
0
70
32
0
VERTEX
8
0
62
255
10
537.05829
20
520.50195
30
0
70
32
0
VERTEX
8
0
62
255
10
540.55676
20
516.83287
30
0
70
32
0
VERTEX
8
0
62
255
10
543.69061
20
512.84785
30
0
70
32
0
VERTEX
8
0
62
255
10
546.43147
20
508.58298
30
0
70
32
0
VERTEX
8
0
62
255
10
548.75453
20
504.07689
30
0
70
32
0
VERTEX
8
0
62
255
10
550.63873
20
499.37038
30
0
70
32
0
VERTEX
8
0
62
255
10
552.06702
20
494.50608
30
0
70
32
0
VERTEX
8
0
62
255
10
553.02645
20
489.52803
30
0
70
32
0
VERTEX
8
0
62
255
10
553.50836
20
484.48133
30
0
70
32
0
VERTEX
8
0
62
255
10
553.50836
20
479.41167
30
0
70
32
0
VERTEX
8
0
62
255
10
553.02645
20
474.36497
30
0
70
32
0
VERTEX
8
0
62
255
10
552.08163
20
469.46275
30
0
70
32
0
VERTEX
8
0
62
255
10
625.99443
20
444.98102
30
0
70
32
0
VERTEX
8
0
62
255
10
627.89807
20
449.00593
30
0
70
32
0
VERTEX
8
0
62
255
10
630.52204
20
453.38376
30
0
70
32
0
VERTEX
8
0
62
255
10
633.56248
20
457.48331
30
0
70
32
0
VERTEX
8
0
62
255
10
636.9901
20
461.26511
30
0
70
32
0
VERTEX
8
0
62
255
10
640.7719
20
464.69274
30
0
70
32
0
VERTEX
8
0
62
255
10
644.87145
20
467.73317
30
0
70
32
0
VERTEX
8
0
62
255
10
648.67468
20
470.01274
30
0
70
32
0
VERTEX
8
0
62
255
10
612.3291
20
554.2896
30
0
70
32
0
VERTEX
8
0
62
255
10
608.52785
20
553.23419
30
0
70
32
0
VERTEX
8
0
62
255
10
603.49372
20
552.40888
30
0
70
32
0
VERTEX
8
0
62
255
10
598.39986
20
552.1327
30
0
70
32
0
VERTEX
8
0
62
255
10
593.30601
20
552.40888
30
0
70
32
0
VERTEX
8
0
62
255
10
588.27188
20
553.23419
30
0
70
32
0
VERTEX
8
0
62
255
10
583.35649
20
554.59894
30
0
70
32
0
VERTEX
8
0
62
255
10
578.61746
20
556.48714
30
0
70
32
0
VERTEX
8
0
62
255
10
574.11037
20
558.87665
30
0
70
32
0
VERTEX
8
0
62
255
10
569.88805
20
561.73945
30
0
70
32
0
VERTEX
8
0
62
255
10
566.00001
20
565.04198
30
0
70
32
0
VERTEX
8
0
62
255
10
562.49182
20
568.74553
30
0
70
32
0
VERTEX
8
0
62
255
10
559.40463
20
572.80667
30
0
70
32
0
VERTEX
8
0
62
255
10
556.77461
20
577.17778
30
0
70
32
0
VERTEX
8
0
62
255
10
554.63262
20
581.80763
30
0
70
32
0
VERTEX
8
0
62
255
10
553.00375
20
586.64193
30
0
70
32
0
VERTEX
8
0
62
255
10
551.90712
20
591.624
30
0
70
32
0
VERTEX
8
0
62
255
10
551.35557
20
596.69543
30
0
70
32
0
VERTEX
8
0
62
255
10
551.35557
20
601.79676
30
0
70
32
0
VERTEX
8
0
62
255
10
551.40003
20
602.20561
30
0
70
32
0
VERTEX
8
0
62
255
10
504.03601
20
609.91782
30
0
70
32
0
SEQEND
8
0
0
POLYLINE
8
0
62
255
66
1
10
0
20
0
30
0
70
8
0
VERTEX
8
0
62
255
10
548.75453
20
459.81612
30
0
70
32
0
VERTEX
8
0
62
255
10
546.43147
20
455.31003
30
0
70
32
0
VERTEX
8
0
62
255
10
543.69061
20
451.04516
30
0
70
32
0
VERTEX
8
0
62
255
10
540.55676
20
447.06014
30
0
70
32
0
VERTEX
8
0
62
255
10
537.05829
20
443.39106
30
0
70
32
0
VERTEX
8
0
62
255
10
533.2269
20
440.07114
30
0
70
32
0
VERTEX
8
0
62
255
10
529.09728
20
437.13045
30
0
70
32
0
VERTEX
8
0
62
255
10
524.70682
20
434.59562
30
0
70
32
0
VERTEX
8
0
62
255
10
520.0953
20
432.4896
30
0
70
32
0
VERTEX
8
0
62
255
10
515.30447
20
430.83148
30
0
70
32
0
VERTEX
8
0
62
255
10
510.37772
20
429.63626
30
0
70
32
0
VERTEX
8
0
62
255
10
505.35966
20
428.91478
30
0
70
32
0
VERTEX
8
0
62
255
10
500.29575
20
428.67355
30
0
70
32
0
VERTEX
8
0
62
255
10
495.23183
20
428.91478
30
0
70
32
0
VERTEX
8
0
62
255
10
490.21377
20
429.63626
30
0
70
32
0
VERTEX
8
0
62
255
10
485.70439
20
430.73023
30
0
70
32
0
VERTEX
8
0
62
255
10
459.86982
20
362.65826
30
0
70
32
0
VERTEX
8
0
62
255
10
463.22398
20
360.87999
30
0
70
32
0
VERTEX
8
0
62
255
10
467.40236
20
358.04699
30
0
70
32
0
VERTEX
8
0
62
255
10
471.24994
20
354.77882
30
0
70
32
0
VERTEX
8
0
62
255
10
474.72161
20
351.11382
30
0
70
32
0
VERTEX
8
0
62
255
10
477.77668
20
347.09495
30
0
70
32
0
VERTEX
8
0
62
255
10
479.21785
20
344.69971
30
0
70
32
0
VERTEX
8
0
62
255
10
624.23647
20
408.72012
30
0
70
32
0
VERTEX
8
0
62
255
10
623.99636
20
409.39119
30
0
70
32
0
VERTEX
8
0
62
255
10
622.75619
20
414.34221
30
0
70
32
0
VERTEX
8
0
62
255
10
622.00729
20
419.39095
30
0
70
32
0
VERTEX
8
0
62
255
10
621.75684
20
424.48878
30
0
70
32
0
VERTEX
8
0
62
255
10
622.00729
20
429.58661
30
0
70
32
0
VERTEX
8
0
62
255
10
622.75619
20
434.63535
30
0
70
32
0
VERTEX
8
0
62
255
10
623.23736
20
436.55625
30
0
70
32
0
VERTEX
8
0
62
255
10
549.25315
20
461.06163
30
0
70
32
0
VERTEX
8
0
62
255
10
548.75453
20
459.81612
30
0
70
32
0
SEQEND
8
0
0
POLYLINE
8
0
62
255
66
1
10
0
20
0
30
0
70
8
0
VERTEX
8
0
62
255
10
484.11094
20
333.40368
30
0
70
32
0
VERTEX
8
0
62
255
10
485.19616
20
328.47346
30
0
70
32
0
VERTEX
8
0
62
255
10
485.74197
20
323.45481
30
0
70
32
0
VERTEX
8
0
62
255
10
485.74197
20
318.40656
30
0
70
32
0
VERTEX
8
0
62
255
10
485.19616
20
313.38791
30
0
70
32
0
VERTEX
8
0
62
255
10
484.94398
20
312.24225
30
0
70
32
0
VERTEX
8
0
62
255
10
586.43949
20
283.24815
30
0
70
32
0
VERTEX
8
0
62
255
10
587.01029
20
284.84341
30
0
70
32
0
VERTEX
8
0
62
255
10
589.17997
20
289.43083
30
0
70
32
0
VERTEX
8
0
62
255
10
591.78886
20
293.78349
30
0
70
32
0
VERTEX
8
0
62
255
10
594.81182
20
297.85948
30
0
70
32
0
VERTEX
8
0
62
255
10
598.21974
20
301.61954
30
0
70
32
0
VERTEX
8
0
62
255
10
601.9798
20
305.02746
30
0
70
32
0
VERTEX
8
0
62
255
10
606.05578
20
308.05042
30
0
70
32
0
VERTEX
8
0
62
255
10
610.40845
20
310.65931
30
0
70
32
0
VERTEX
8
0
62
255
10
614.99587
20
312.82899
30
0
70
32
0
VERTEX
8
0
62
255
10
619.77386
20
314.53859
30
0
70
32
0
VERTEX
8
0
62
255
10
624.69642
20
315.77162
30
0
70
32
0
VERTEX
8
0
62
255
10
629.71613
20
316.51623
30
0
70
32
0
VERTEX
8
0
62
255
10
634.78466
20
316.76523
30
0
70
32
0
VERTEX
8
0
62
255
10
639.85319
20
316.51623
30
0
70
32
0
VERTEX
8
0
62
255
10
641.32409
20
316.29804
30
0
70
32
0
VERTEX
8
0
62
255
10
655.85422
20
375.7258
30
0
70
32
0
VERTEX
8
0
62
255
10
653.86322
20
376.43819
30
0
70
32
0
VERTEX
8
0
62
255
10
649.24928
20
378.62042
30
0
70
32
0
VERTEX
8
0
62
255
10
644.87145
20
381.24439
30
0
70
32
0
VERTEX
8
0
62
255
10
640.7719
20
384.28483
30
0
70
32
0
VERTEX
8
0
62
255
10
636.9901
20
387.71245
30
0
70
32
0
VERTEX
8
0
62
255
10
633.56248
20
391.49425
30
0
70
32
0
VERTEX
8
0
62
255
10
630.52204
20
395.5938
30
0
70
32
0
VERTEX
8
0
62
255
10
628.76498
20
398.52529
30
0
70
32
0
VERTEX
8
0
62
255
10
483.74073
20
334.5024
30
0
70
32
0
VERTEX
8
0
62
255
10
484.11094
20
333.40368
30
0
70
32
0
SEQEND
8
0
0
POLYLINE
8
0
62
255
66
1
10
0
20
0
30
0
70
8
0
VERTEX
8
0
62
255
10
482.49903
20
303.67371
30
0
70
32
0
VERTEX
8
0
62
255
10
480.37932
20
299.09205
30
0
70
32
0
VERTEX
8
0
62
255
10
477.77668
20
294.76642
30
0
70
32
0
VERTEX
8
0
62
255
10
474.72161
20
290.74755
30
0
70
32
0
VERTEX
8
0
62
255
10
471.24994
20
287.08255
30
0
70
32
0
VERTEX
8
0
62
255
10
467.40236
20
283.81438
30
0
70
32
0
VERTEX
8
0
62
255
10
463.22398
20
280.98138
30
0
70
32
0
VERTEX
8
0
62
255
10
458.7638
20
278.61673
30
0
70
32
0
VERTEX
8
0
62
255
10
454.0741
20
276.74819
30
0
70
32
0
VERTEX
8
0
62
255
10
449.20986
20
275.39764
30
0
70
32
0
VERTEX
8
0
62
255
10
444.22812
20
274.58092
30
0
70
32
0
VERTEX
8
0
62
255
10
444.22761
20
274.5809
30
0
70
32
0
VERTEX
8
0
62
255
10
444.53677
20
244.08219
30
0
70
32
0
VERTEX
8
0
62
255
10
445.50907
20
244.03123
30
0
70
32
0
VERTEX
8
0
62
255
10
450.50845
20
243.23941
30
0
70
32
0
VERTEX
8
0
62
255
10
455.39768
20
241.92934
30
0
70
32
0
VERTEX
8
0
62
255
10
460.12318
20
240.11539
30
0
70
32
0
VERTEX
8
0
62
255
10
464.63319
20
237.81743
30
0
70
32
0
VERTEX
8
0
62
255
10
468.87828
20
235.06063
30
0
70
32
0
VERTEX
8
0
62
255
10
472.81196
20
231.8752
30
0
70
32
0
VERTEX
8
0
62
255
10
476.39112
20
228.29604
30
0
70
32
0
VERTEX
8
0
62
255
10
479.57655
20
224.36236
30
0
70
32
0
VERTEX
8
0
62
255
10
482.33335
20
220.11727
30
0
70
32
0
VERTEX
8
0
62
255
10
483.80597
20
217.2271
30
0
70
32
0
VERTEX
8
0
62
255
10
584.54601
20
253.05666
30
0
70
32
0
VERTEX
8
0
62
255
10
584.06766
20
254.96638
30
0
70
32
0
VERTEX
8
0
62
255
10
583.32305
20
259.98609
30
0
70
32
0
VERTEX
8
0
62
255
10
583.07405
20
265.05462
30
0
70
32
0
VERTEX
8
0
62
255
10
583.32305
20
270.12314
30
0
70
32
0
VERTEX
8
0
62
255
10
584.06766
20
275.14286
30
0
70
32
0
VERTEX
8
0
62
255
10
584.07168
20
275.15891
30
0
70
32
0
VERTEX
8
0
62
255
10
482.65311
20
304.13103
30
0
70
32
0
VERTEX
8
0
62
255
10
482.49903
20
303.67371
30
0
70
32
0
SEQEND
8
0
0
POLYLINE
8
0
62
255
66
1
10
0
20
0
30
0
70
8
0
VERTEX
8
0
62
255
10
487.75533
20
205.99253
30
0
70
32
0
VERTEX
8
0
62
255
10
488.54715
20
200.99315
30
0
70
32
0
VERTEX
8
0
62
255
10
488.81206
20
195.93839
30
0
70
32
0
VERTEX
8
0
62
255
10
488.54715
20
190.88363
30
0
70
32
0
VERTEX
8
0
62
255
10
487.75533
20
185.88425
30
0
70
32
0
VERTEX
8
0
62
255
10
486.44526
20
180.99503
30
0
70
32
0
VERTEX
8
0
62
255
10
484.63131
20
176.26953
30
0
70
32
0
VERTEX
8
0
62
255
10
482.33335
20
171.75952
30
0
70
32
0
VERTEX
8
0
62
255
10
479.57655
20
167.51442
30
0
70
32
0
VERTEX
8
0
62
255
10
476.39112
20
163.58074
30
0
70
32
0
VERTEX
8
0
62
255
10
473.30443
20
160.49405
30
0
70
32
0
VERTEX
8
0
62
255
10
517.25306
20
101.75774
30
0
70
32
0
VERTEX
8
0
62
255
10
521.42621
20
103.97021
30
0
70
32
0
VERTEX
8
0
62
255
10
526.1445
20
105.85014
30
0
70
32
0
VERTEX
8
0
62
255
10
531.03838
20
107.20892
30
0
70
32
0
VERTEX
8
0
62
255
10
536.05049
20
108.03062
30
0
70
32
0
VERTEX
8
0
62
255
10
541.12205
20
108.30559
30
0
70
32
0
VERTEX
8
0
62
255
10
546.19361
20
108.03062
30
0
70
32
0
VERTEX
8
0
62
255
10
551.20572
20
107.20892
30
0
70
32
0
VERTEX
8
0
62
255
10
556.0996
20
105.85014
30
0
70
32
0
VERTEX
8
0
62
255
10
560.81789
20
103.97021
30
0
70
32
0
VERTEX
8
0
62
255
10
565.30526
20
101.59115
30
0
70
32
0
VERTEX
8
0
62
255
10
569.5091
20
98.740878
30
0
70
32
0
VERTEX
8
0
62
255
10
573.38013
20
95.452795
30
0
70
32
0
VERTEX
8
0
62
255
10
576.87296
20
91.765454
30
0
70
32
0
VERTEX
8
0
62
255
10
579.94665
20
87.722087
30
0
70
32
0
VERTEX
8
0
62
255
10
581.43892
20
85.241925
30
0
70
32
0
VERTEX
8
0
62
255
10
641.41802
20
112.04657
30
0
70
32
0
VERTEX
8
0
62
255
10
640.55241
20
114.71065
30
0
70
32
0
VERTEX
8
0
62
255
10
639.45394
20
119.68135
30
0
70
32
0
VERTEX
8
0
62
255
10
638.84033
20
124.73485
30
0
70
32
0
VERTEX
8
0
62
255
10
638.71732
20
129.82399
30
0
70
32
0
VERTEX
8
0
62
255
10
639.08606
20
134.90124
30
0
70
32
0
VERTEX
8
0
62
255
10
639.9431
20
139.9192
30
0
70
32
0
VERTEX
8
0
62
255
10
641.28045
20
144.83101
30
0
70
32
0
VERTEX
8
0
62
255
10
643.0856
20
149.59083
30
0
70
32
0
VERTEX
8
0
62
255
10
645.34173
20
154.1542
30
0
70
32
0
VERTEX
8
0
62
255
10
648.02774
20
158.47852
30
0
70
32
0
VERTEX
8
0
62
255
10
651.11858
20
162.52342
30
0
70
32
0
VERTEX
8
0
62
255
10
654.58537
20
166.25112
30
0
70
32
0
VERTEX
8
0
62
255
10
658.39576
20
169.62683
30
0
70
32
0
VERTEX
8
0
62
255
10
662.51416
20
172.61902
30
0
70
32
0
VERTEX
8
0
62
255
10
666.51793
20
174.9738
30
0
70
32
0
VERTEX
8
0
62
255
10
649.69506
20
215.5455
30
0
70
32
0
VERTEX
8
0
62
255
10
644.8729
20
214.33761
30
0
70
32
0
VERTEX
8
0
62
255
10
639.85319
20
213.59301
30
0
70
32
0
VERTEX
8
0
62
255
10
634.78466
20
213.34401
30
0
70
32
0
VERTEX
8
0
62
255
10
629.71613
20
213.59301
30
0
70
32
0
VERTEX
8
0
62
255
10
624.69642
20
214.33761
30
0
70
32
0
VERTEX
8
0
62
255
10
619.77386
20
215.57065
30
0
70
32
0
VERTEX
8
0
62
255
10
614.99587
20
217.28024
30
0
70
32
0
VERTEX
8
0
62
255
10
610.40845
20
219.44993
30
0
70
32
0
VERTEX
8
0
62
255
10
606.05578
20
222.05882
30
0
70
32
0
VERTEX
8
0
62
255
10
601.9798
20
225.08178
30
0
70
32
0
VERTEX
8
0
62
255
10
598.21974
20
228.4897
30
0
70
32
0
VERTEX
8
0
62
255
10
594.81182
20
232.24975
30
0
70
32
0
VERTEX
8
0
62
255
10
591.78886
20
236.32574
30
0
70
32
0
VERTEX
8
0
62
255
10
589.17997
20
240.67841
30
0
70
32
0
VERTEX
8
0
62
255
10
588.25439
20
242.6354
30
0
70
32
0
VERTEX
8
0
62
255
10
487.5354
20
206.81332
30
0
70
32
0
VERTEX
8
0
62
255
10
487.75533
20
205.99253
30
0
70
32
0
SEQEND
8
0
0
POLYLINE
8
0
62
255
66
1
10
0
20
0
30
0
70
8
0
VERTEX
8
0
62
255
10
-4500
20
-1300
30
0
70
32
0
VERTEX
8
0
62
255
10
-4500
20
-1700
30
0
70
32
0
VERTEX
8
0
62
255
10
-4500
20
-1500
30
0
70
32
0
VERTEX
8
0
62
255
10
-3500
20
-1500
30
0
70
32
0
VERTEX
8
0
62
255
10
-3500
20
-1300
30
0
70
32
0
VERTEX
8
0
62
255
10
-3500
20
-1700
30
0
70
32
0
SEQEND
8
0
0
TEXT
8
0
62
255
10
-4350
20
-1400
30
0
210
0
220
0
230
1
40
200
51
0
50
0
39
0
72
0
73
0
1
1 mm
0
TEXT
8
0
62
255
10
0
20
-900
30
0
210
0
220
0
230
1
40
200
51
0
50
0
39
0
72
0
73
0
1
Pore Network Info:
0
TEXT
8
0
62
255
10
0
20
-1500
30
0
210
0
220
0
230
1
40
200
51
0
50
0
39
0
72
0
73
0
1
Mean pore diameter: 100 microns
0
TEXT
8
0
62
255
10
0
20
-1900
30
0
210
0
220
0
230
1
40
200
51
0
50
0
39
0
72
0
73
0
1
StD of pore diameter: 10 microns
0
TEXT
8
0
62
255
10
0
20
-2300
30
0
210
0
220
0
230
1
40
200
51
0
50
0
39
0
72
0
73
0
1
Mean throat width: 10 microns
0
TEXT
8
0
62
255
10
0
20
-2700
30
0
210
0
220
0
230
1
40
200
51
0
50
0
39
0
72
0
73
0
1
StD of throat width: 1 microns
0
TEXT
8
0
62
255
10
0
20
-3100
30
0
210
0
220
0
230
1
40
200
51
0
50
0
39
0
72
0
73
0
1
Porosity: 0.40726
0
TEXT
8
0
62
255
10
500
20
-2000
30
0
210
0
220
0
230
1
40
100
51
0
50
0
39
0
72
0
73
0
1
Generated on 09-May-2019 15:01:07.
0
TEXT
8
0
62
255
10
500
20
-2200
30
0
210
0
220
0
230
1
40
100
51
0
50
0
39
0
72
0
73
0
1
Source code by Peyruz Gasimov, April, 2018
0
ENDSEC
0
EOF
